<svg width="288" height="222" viewBox="0 0 288 222" fill="none" xmlns="http://www.w3.org/2000/svg">
<g clip-path="url(#clip0_1320_8662)">
<path d="M193.002 62.5092C199.18 45.8631 213.777 31.4797 231.418 29.7688C220.812 45.8954 216.241 65.2614 218.512 84.4405C219.415 91.8338 221.187 99.9629 217.21 106.255C214.735 110.171 210.374 112.581 205.878 113.669C201.383 114.757 196.698 114.673 192.074 114.582L191.039 115.094C187.786 97.6358 186.823 79.1553 193.002 62.5092Z" fill="#ACC3A6"/>
<path d="M231.503 30.1315C219.478 38.5504 210.405 50.5524 205.574 64.4327C204.557 67.4127 203.784 70.5244 203.739 73.6888C203.719 76.7736 204.524 79.8075 206.07 82.4751C207.462 84.9915 209.176 87.4039 209.933 90.2155C210.731 93.179 210.081 96.1769 208.451 98.7373C206.457 101.87 203.458 104.098 200.45 106.174C197.11 108.48 193.605 110.822 191.562 114.444C191.314 114.882 190.649 114.472 190.896 114.034C194.451 107.732 201.913 105.443 206.477 100.09C208.607 97.5929 209.999 94.4369 209.341 91.1111C208.765 88.2029 206.999 85.7136 205.568 83.1779C204.065 80.5155 203.084 77.7524 202.969 74.6719C202.852 71.5208 203.505 68.3723 204.442 65.3793C206.616 58.6082 209.839 52.2218 213.993 46.454C218.697 39.8449 224.495 34.0909 231.135 29.4409C231.546 29.1533 231.912 29.8457 231.503 30.1315V30.1315Z" fill="white"/>
<path d="M206.867 59.8715C204.653 58.7431 202.911 56.8628 201.953 54.5665C200.995 52.2701 200.883 49.7072 201.636 47.3354C201.79 46.8561 202.541 47.0735 202.386 47.5535C201.681 49.7608 201.786 52.1481 202.682 54.2847C203.579 56.4212 205.208 58.1662 207.276 59.2047C207.725 59.4309 207.313 60.0965 206.867 59.8715Z" fill="white"/>
<path d="M205.197 81.2924C210.039 79.76 214.126 76.4552 216.644 72.037C216.894 71.599 217.559 72.0096 217.31 72.447C214.681 77.0398 210.42 80.4703 205.378 82.0538C204.898 82.2044 204.719 81.4422 205.197 81.2924V81.2924Z" fill="white"/>
<path d="M219.232 40.7337C219.997 41.3492 220.904 41.7644 221.869 41.9421C222.835 42.1198 223.829 42.0544 224.763 41.7518C225.242 41.5951 225.42 42.3576 224.945 42.5132C223.911 42.8427 222.813 42.9136 221.746 42.7197C220.678 42.5257 219.675 42.0728 218.822 41.4005C218.737 41.3439 218.676 41.2567 218.652 41.1567C218.628 41.0567 218.643 40.9514 218.694 40.8621C218.749 40.7741 218.836 40.7112 218.937 40.6872C219.037 40.6631 219.143 40.6799 219.232 40.7337V40.7337Z" fill="white"/>
<path d="M273.938 72.2C273.642 72.3063 273.346 72.4126 273.048 72.5253C269.075 73.9753 265.227 75.7464 261.541 77.821C261.253 77.9768 260.964 78.1391 260.682 78.303C251.854 83.396 244.047 90.0871 237.656 98.0362C235.116 101.202 232.82 104.556 230.788 108.071C227.982 112.925 225.325 118.411 221.204 121.949C220.778 122.322 220.33 122.67 219.861 122.988L191.742 116.32C191.686 116.273 191.628 116.232 191.571 116.185L190.437 115.97C190.529 115.781 190.628 115.588 190.72 115.399C190.773 115.289 190.833 115.181 190.886 115.072C190.923 114.999 190.961 114.926 190.99 114.859C191.003 114.835 191.015 114.81 191.026 114.793C191.056 114.725 191.09 114.665 191.118 114.604C191.672 113.52 192.235 112.438 192.806 111.359C192.807 111.352 192.807 111.352 192.815 111.347C197.188 103.131 202.283 95.2083 208.416 88.3125C208.601 88.1051 208.787 87.8912 208.984 87.6868C211.766 84.5939 214.796 81.734 218.042 79.1356C219.825 77.7186 221.678 76.3929 223.594 75.1636C228.551 71.9968 233.975 69.6311 239.665 68.1532C251.011 65.2088 263.169 65.933 273.177 71.7481C273.433 71.8971 273.683 72.0446 273.938 72.2Z" fill="#ACC3A6"/>
<path d="M273.79 72.5426C259.13 72.0091 244.675 76.1182 232.478 84.286C229.876 86.0518 227.389 88.07 225.452 90.5698C223.583 93.0209 222.403 95.9289 222.034 98.9916C221.634 101.84 221.553 104.801 220.468 107.502C219.325 110.35 217.004 112.351 214.165 113.412C210.69 114.71 206.957 114.68 203.308 114.523C199.256 114.349 195.051 114.104 191.243 115.763C190.782 115.964 190.497 115.235 190.958 115.034C197.583 112.148 204.915 114.822 211.776 113.302C214.977 112.593 217.984 110.913 219.457 107.86C220.744 105.19 220.83 102.138 221.211 99.2497C221.611 96.2173 222.487 93.4188 224.247 90.8902C226.046 88.3036 228.46 86.1837 231.005 84.359C236.81 80.2643 243.22 77.1096 250.002 75.0105C257.729 72.5717 265.815 71.4754 273.911 71.7691C274.412 71.7875 274.288 72.5608 273.79 72.5426L273.79 72.5426Z" fill="white"/>
<path d="M236.251 81.4244C235.161 79.1877 234.901 76.6356 235.515 74.224C236.13 71.8124 237.58 69.6983 239.606 68.2591C240.017 67.9693 240.486 68.5958 240.075 68.886C238.185 70.2226 236.834 72.1921 236.267 74.439C235.699 76.6858 235.951 79.0621 236.978 81.1388C237.201 81.5904 236.472 81.8734 236.251 81.4244V81.4244Z" fill="white"/>
<path d="M222.048 97.5203C226.834 99.2179 232.084 99.0453 236.749 97.0369C237.211 96.8375 237.495 97.5666 237.034 97.7657C232.175 99.8466 226.712 100.015 221.735 98.2376C221.261 98.0679 221.576 97.3515 222.048 97.5203Z" fill="white"/>
<path d="M257.622 73.604C257.864 74.5575 258.338 75.4359 259.002 76.1603C259.666 76.8847 260.5 77.4325 261.427 77.7544C261.904 77.9181 261.588 78.6343 261.115 78.4717C260.091 78.1112 259.172 77.5052 258.436 76.7064C257.701 75.9077 257.171 74.9406 256.895 73.8896C256.861 73.7927 256.864 73.6864 256.905 73.5922C256.946 73.498 257.022 73.423 257.116 73.3824C257.213 73.3451 257.32 73.3474 257.415 73.3889C257.509 73.4304 257.584 73.5077 257.622 73.604V73.604Z" fill="white"/>
<path d="M30.0794 215.091C13.982 207.66 0.771925 191.988 0.401611 174.232C15.6477 186.047 34.573 192.078 53.8289 191.256C61.254 190.913 69.4767 189.755 75.4379 194.205C79.1471 196.973 81.2163 201.513 81.9593 206.087C82.7021 210.662 82.2645 215.337 81.8253 219.95L82.2568 221.024C64.6388 222.955 46.1768 222.521 30.0794 215.091Z" fill="#ACC3A6"/>
<path d="M0.769067 174.174C8.23831 186.826 19.4959 196.798 32.9429 202.674C35.8314 203.915 38.8693 204.922 42.0148 205.206C45.0829 205.459 48.1625 204.884 50.9338 203.54C53.5428 202.34 56.0728 200.809 58.9276 200.265C61.9367 199.691 64.8708 200.568 67.2954 202.39C70.2621 204.619 72.2525 207.783 74.0916 210.946C76.1336 214.457 78.199 218.136 81.6487 220.452C82.0667 220.732 81.6079 221.366 81.1905 221.086C75.1886 217.057 73.4744 209.429 68.493 204.464C66.1685 202.147 63.1332 200.518 59.7741 200.925C56.8367 201.28 54.2264 202.857 51.5952 204.095C48.8324 205.396 46.0088 206.168 42.9349 206.05C39.7905 205.929 36.7068 205.038 33.7993 203.877C27.2258 201.193 21.1143 197.49 15.6886 192.904C9.46739 187.704 4.17962 181.476 0.0540944 174.49C-0.201087 174.057 0.515532 173.744 0.769028 174.174H0.769067Z" fill="white"/>
<path d="M28.5018 201.038C27.2118 203.165 25.2093 204.763 22.8519 205.547C20.4945 206.331 17.9357 206.25 15.6326 205.318C15.1672 205.127 15.4403 204.394 15.9062 204.584C18.0493 205.456 20.4328 205.531 22.6265 204.797C24.8202 204.062 26.6797 202.566 27.8692 200.578C28.1282 200.147 28.7593 200.608 28.5018 201.038Z" fill="white"/>
<path d="M49.6909 204.324C48.5317 199.37 45.5519 195.036 41.3456 192.186C40.9286 191.904 41.3873 191.27 41.8038 191.552C46.1754 194.526 49.2673 199.042 50.4622 204.2C50.5758 204.692 49.8039 204.813 49.6909 204.324Z" fill="white"/>
<path d="M10.3921 187.237C11.0624 186.518 11.544 185.644 11.7937 184.692C12.0435 183.741 12.0535 182.742 11.8229 181.786C11.7032 181.296 12.4753 181.176 12.5942 181.663C12.8441 182.72 12.8317 183.823 12.5581 184.875C12.2845 185.927 11.758 186.895 11.0247 187.696C10.9619 187.777 10.8705 187.832 10.7692 187.848C10.6679 187.864 10.5643 187.841 10.4793 187.783C10.3958 187.722 10.3399 187.63 10.3235 187.528C10.3072 187.426 10.3318 187.321 10.3921 187.237Z" fill="white"/>
<path d="M45.8344 134.949C45.9178 135.253 46.0013 135.557 46.0909 135.863C47.2338 139.942 48.7055 143.921 50.4915 147.761C50.6249 148.06 50.7646 148.361 50.9062 148.656C55.3075 157.861 61.376 166.168 68.8033 173.154C71.7614 175.931 74.9259 178.478 78.2697 180.774C82.8877 183.944 88.1466 187.014 91.3553 191.399C91.6951 191.853 92.0066 192.327 92.288 192.819L83.5299 220.413C83.4786 220.465 83.4335 220.52 83.382 220.573L83.0826 221.691C82.9019 221.585 82.7168 221.471 82.5361 221.364C82.431 221.303 82.3279 221.236 82.2228 221.174C82.1534 221.132 82.084 221.089 82.0189 221.054C81.9957 221.04 81.9727 221.025 81.9558 221.013C81.8907 220.979 81.8339 220.939 81.775 220.907C80.7384 220.271 79.7044 219.628 78.6731 218.975C78.6668 218.973 78.6668 218.973 78.6625 218.965C70.8169 213.976 63.3182 208.286 56.9196 201.637C56.7271 201.436 56.5283 201.235 56.3398 201.022C53.4723 198.009 50.8552 194.766 48.5149 191.325C47.2394 189.437 46.0602 187.485 44.9817 185.478C42.2049 180.285 40.2604 174.687 39.2196 168.889C37.1464 157.331 38.7852 145.236 45.3274 135.675C45.4949 135.43 45.6606 135.192 45.8344 134.949Z" fill="#ACC3A6"/>
<path d="M46.1642 135.122C44.5264 149.731 47.5235 164.485 54.73 177.29C56.2905 180.023 58.111 182.66 60.4522 184.784C62.75 186.837 65.5545 188.236 68.5743 188.835C71.3787 189.451 74.3185 189.755 76.9248 191.043C79.672 192.401 81.4882 194.871 82.3295 197.788C83.3588 201.358 83.0467 205.086 82.6152 208.72C82.136 212.756 81.5745 216.94 82.9377 220.87C83.1029 221.346 82.356 221.575 82.191 221.099C79.8192 214.262 83.0338 207.137 82.0395 200.167C81.5756 196.914 80.1307 193.783 77.2043 192.081C74.6452 190.593 71.6139 190.276 68.769 189.678C65.7817 189.049 63.0633 187.962 60.68 186.013C58.242 184.019 56.3148 181.448 54.6914 178.766C51.0552 172.658 48.4002 166.014 46.8235 159.079C44.9803 151.173 44.5001 143.011 45.4037 134.943C45.4599 134.444 46.22 134.626 46.1642 135.122V135.122Z" fill="white"/>
<path d="M52.1672 173.304C49.8592 174.223 47.3001 174.291 44.9468 173.495C42.5935 172.699 40.5993 171.09 39.3203 168.957C39.063 168.524 39.7217 168.103 39.9794 168.536C41.1667 170.525 43.0245 172.023 45.2174 172.76C47.4103 173.497 49.7939 173.425 51.9379 172.555C52.4041 172.367 52.6307 173.116 52.1672 173.304Z" fill="white"/>
<path d="M67.1112 188.711C69.1619 184.056 69.3865 178.798 67.7402 173.985C67.5768 173.508 68.3237 173.279 68.487 173.755C70.1908 178.767 69.9459 184.239 67.8013 189.078C67.5966 189.539 66.9076 189.17 67.1112 188.711Z" fill="white"/>
<path d="M45.9993 151.358C46.9663 151.189 47.8762 150.781 48.6472 150.172C49.4182 149.563 50.0262 148.772 50.4166 147.869C50.6154 147.406 51.3042 147.776 51.1067 148.236C50.6708 149.231 49.9982 150.104 49.1479 150.779C48.2975 151.454 47.2952 151.91 46.2286 152.107C46.1296 152.134 46.024 152.122 45.9334 152.074C45.8428 152.025 45.7738 151.945 45.7406 151.847C45.7107 151.748 45.7212 151.641 45.7696 151.549C45.8181 151.458 45.9006 151.389 45.9993 151.358Z" fill="white"/>
<path d="M67.1438 116.966C52.9196 102.934 46.912 88.2951 50.2271 75.7464C54.4815 59.6427 73.3815 48.5084 102.081 45.1984L102.187 46.1221C73.8871 49.3858 55.2753 60.2703 51.124 75.9842C47.8977 88.1966 53.8181 102.516 67.7947 116.304L67.1438 116.966Z" fill="#ACC3A6"/>
<path d="M204.383 166.775C186.631 166.775 167.339 164.131 148.177 159.048C124.481 152.762 102.754 143.273 85.3457 131.608L85.8612 130.835C103.186 142.444 124.817 151.889 148.415 158.149C169.74 163.807 191.225 166.428 210.54 165.737L210.573 166.665C208.534 166.739 206.47 166.775 204.383 166.775Z" fill="#ACC3A6"/>
<path d="M245.11 160.929L244.813 160.048C260.69 154.669 270.621 146.003 273.531 134.987C277.231 120.984 269.194 104.733 250.9 89.2293C232.513 73.6468 205.999 60.7172 176.241 52.8227L176.478 51.924C206.366 59.8531 233.01 72.8497 251.499 88.5196C270.081 104.268 278.225 120.855 274.428 135.225C271.435 146.557 261.296 155.445 245.11 160.929Z" fill="#ACC3A6"/>
<path d="M99.3192 167.164C64.4363 151.66 37.5563 131.547 23.6313 110.527L24.4041 110.013C38.2329 130.887 64.9717 150.881 99.6952 166.314L99.3192 167.164Z" fill="#ACC3A6"/>
<path d="M221.965 194.022C218.367 194.022 214.707 193.941 210.986 193.78L211.026 192.852C238.794 194.056 263.294 190.726 281.883 183.22L282.23 184.082C266.015 190.63 245.347 194.022 221.965 194.022Z" fill="#ACC3A6"/>
<path d="M201.725 46.032C195.96 44.1509 190.029 42.3995 184.099 40.8262C149.972 31.7726 116.424 28.5582 87.0823 31.5321L86.989 30.607C116.441 27.6233 150.103 30.8455 184.336 39.9274C190.283 41.5052 196.231 43.2617 202.012 45.1482L201.725 46.032Z" fill="#ACC3A6"/>
<path d="M45.343 118.36C31.1188 104.328 25.1112 89.6896 28.4263 77.1408C32.6807 61.0372 51.5808 49.9029 80.2803 46.5928L80.3863 47.5166C52.0863 50.7803 33.4746 61.6647 29.3232 77.3787C26.0969 89.5911 32.0173 103.91 45.994 117.698L45.343 118.36Z" fill="#ACC3A6"/>
<path d="M182.582 168.17C164.83 168.17 145.538 165.526 126.376 160.442C102.68 154.156 80.9533 144.667 63.5447 133.002L64.0602 132.229C81.385 143.838 103.016 153.284 126.614 159.544C147.939 165.201 169.424 167.823 188.739 167.131L188.772 168.06C186.733 168.133 184.669 168.17 182.582 168.17Z" fill="#ACC3A6"/>
<path d="M223.309 162.324L223.012 161.443C238.889 156.063 248.82 147.398 251.73 136.382C255.43 122.378 247.393 106.128 229.099 90.6238C210.712 75.0412 184.198 62.1116 154.44 54.2172L154.677 53.3184C184.565 61.2476 211.209 74.2441 229.698 89.9141C248.28 105.663 256.424 122.25 252.627 136.62C249.634 147.952 239.495 156.84 223.309 162.324Z" fill="#ACC3A6"/>
<path d="M77.5182 168.558C42.6352 153.055 15.7553 132.941 1.83032 111.922L2.60311 111.408C16.4318 132.281 43.1707 152.276 77.8941 167.708L77.5182 168.558Z" fill="#ACC3A6"/>
<path d="M200.164 195.416C196.566 195.416 192.906 195.336 189.186 195.175L189.225 194.246C216.993 195.451 241.494 192.121 260.082 184.614L260.429 185.477C244.214 192.024 223.546 195.416 200.164 195.416Z" fill="#ACC3A6"/>
<path d="M179.924 47.4265C174.159 45.5454 168.229 43.7939 162.298 42.2206C128.171 33.1671 94.6237 29.9526 65.2816 32.9265L65.1882 32.0014C94.6397 29.0178 128.302 32.24 162.535 41.3219C168.483 42.8997 174.43 44.6562 180.212 46.5427L179.924 47.4265Z" fill="#ACC3A6"/>
<path d="M87.7634 116.454C85.8572 116.456 84.0297 117.216 82.6818 118.567C81.334 119.918 80.5758 121.749 80.5737 123.659C77.8402 143.828 76.9273 164.202 77.8461 184.535C77.9007 185.833 77.9611 187.021 78.0314 188.166C78.1333 190.058 78.2628 192.055 78.4162 194.104C78.5043 195.312 78.5971 196.524 78.6988 197.732C78.8691 199.699 79.0562 201.698 79.2553 203.673C79.3803 204.88 79.5101 206.092 79.6489 207.3C79.9155 209.671 80.2172 212.103 80.5717 214.732C80.5681 216.647 81.3237 218.485 82.6724 219.842C84.021 221.199 85.8522 221.964 87.7634 221.968H208.364C210.27 221.966 212.098 221.206 213.446 219.856C214.794 218.505 215.552 216.674 215.554 214.763L215.559 214.714C216.097 212.261 216.597 209.762 217.047 207.285C217.287 205.979 217.495 204.793 217.682 203.659C218.02 201.594 218.321 199.596 218.575 197.72C218.75 196.46 218.907 195.241 219.044 194.093C219.268 192.215 219.471 190.274 219.664 188.159C219.77 187.009 219.867 185.822 219.961 184.529V184.528C221.436 164.149 219.953 143.662 215.559 123.709L215.554 123.659C215.552 121.749 214.794 119.918 213.446 118.567C212.098 117.216 210.27 116.456 208.364 116.454L87.7634 116.454Z" fill="#2C2C54"/>
<path d="M152.746 147.298C126.615 147.298 98.9249 144.919 62.6853 140.158H62.6815C60.8028 140.156 58.9911 139.458 57.5938 138.2C56.1966 136.941 55.312 135.21 55.1097 133.339C55.0767 133.057 55.0608 132.774 55.0619 132.491V110.644C55.0611 110.597 55.0632 110.551 55.0683 110.504C55.1091 108.497 55.932 106.585 57.3611 105.178C58.7902 103.771 60.712 102.98 62.7155 102.975C125.765 94.384 164.065 94.3849 233.441 102.976H233.444C235.446 102.99 237.364 103.787 238.787 105.198C240.211 106.61 241.027 108.523 241.061 110.529C241.065 110.567 241.067 110.606 241.066 110.644V132.491C241.067 132.775 241.051 133.059 241.018 133.341C240.812 135.217 239.922 136.952 238.518 138.21C237.114 139.469 235.296 140.164 233.412 140.16C203.438 144.918 178.871 147.298 152.746 147.298Z" fill="#6C63FF"/>
<path d="M156.938 162.471H141.083C139.065 162.469 137.13 161.665 135.703 160.235C134.276 158.805 133.474 156.866 133.471 154.844V97.1221C133.474 95.0999 134.276 93.1612 135.703 91.7314C137.13 90.3015 139.065 89.4971 141.083 89.4948H156.938C158.956 89.4971 160.89 90.3014 162.317 91.7313C163.744 93.1612 164.547 95.0999 164.549 97.1221V154.844C164.547 156.866 163.744 158.805 162.317 160.235C160.89 161.665 158.956 162.469 156.938 162.471Z" fill="#2C2C54"/>
<path d="M192.934 78.4496C192.819 77.3675 192.617 76.2965 192.329 75.2471C192.019 74.1956 191.626 73.1705 191.154 72.1812C189.463 68.5442 186.61 65.5758 183.047 63.7453C178.624 61.5637 173.565 61.3852 168.81 62.4363C164.813 63.3335 161.06 65.0944 157.812 67.5961C156.129 68.8673 154.59 70.3212 153.225 71.9312C151.817 73.6252 149.196 78.2793 149.007 78.7102C147.525 75.3391 145.399 72.2913 142.748 69.7388C139.667 66.8083 135.99 64.5811 131.968 63.2102C129.83 62.4883 127.611 62.0362 125.361 61.8643C122.98 61.666 120.584 61.8755 118.273 62.484C114.124 63.6486 110.534 66.278 108.167 69.8869C105.912 73.2411 104.804 77.2383 105.011 81.2775C105.125 83.3169 105.564 85.3248 106.311 87.2253C106.711 88.254 107.186 89.2521 107.732 90.2116C108.296 91.1592 108.927 92.0654 109.62 92.9232C112.339 96.2671 116.002 98.7113 120.13 99.936C124.536 101.301 129.21 101.345 133.742 100.705C138.395 100.047 142.874 98.5372 147.256 96.8841C147.841 96.6636 148.423 96.4366 149.006 96.2119C152.902 97.7139 156.832 99.1625 160.91 100.082C165.498 101.192 170.26 101.384 174.922 100.645C179.268 99.9302 183.308 97.9525 186.542 94.9572C189.534 92.1355 191.628 88.4913 192.562 84.4817C193.023 82.5061 193.149 80.467 192.934 78.4496ZM132.532 96.2141C130.017 96.5371 127.472 96.552 124.953 96.2586C123.148 95.9964 121.38 95.5247 119.683 94.853C115.685 93.1844 112.498 90.0133 110.804 86.0187C110.298 84.7594 109.937 83.4461 109.73 82.1045C109.596 80.9109 109.596 79.7062 109.729 78.5126C109.926 77.2567 110.264 76.0272 110.736 74.8474C111.247 73.6998 111.881 72.6115 112.628 71.6019C113.352 70.6985 114.17 69.8751 115.068 69.1457C115.92 68.5145 116.836 67.9764 117.802 67.5405C118.955 67.0894 120.154 66.768 121.377 66.5822C123.034 66.3984 124.707 66.4115 126.361 66.6212C128.33 66.9258 130.256 67.4579 132.102 68.207C134.066 69.061 135.921 70.1451 137.63 71.4368C139.211 72.6921 140.645 74.124 141.902 75.7047C143.147 77.3641 144.191 79.1659 145.013 81.072C145.811 83.0608 146.371 85.1371 146.683 87.2577L146.686 87.2888C146.565 88.3542 146.504 89.4258 146.504 90.4982C146.505 90.9114 146.523 91.324 146.544 91.7364C146.348 91.9254 146.185 92.1457 146.061 92.3882C142.83 93.6584 139.518 94.711 136.147 95.5388C134.952 95.8152 133.747 96.0403 132.532 96.2141ZM188.293 82.1044C188.086 83.4461 187.725 84.7596 187.219 86.0191C185.533 90.0191 182.343 93.1928 178.34 94.853C176.643 95.5247 174.875 95.9964 173.07 96.2586C170.546 96.5525 167.997 96.537 165.478 96.2125C161.003 95.5713 156.686 94.1558 152.463 92.576C152.289 92.511 152.117 92.4424 151.943 92.3768C151.825 92.1379 151.669 91.9201 151.48 91.7322C151.555 90.2355 151.509 88.7353 151.342 87.2461C151.654 85.1295 152.214 83.0571 153.01 81.072C153.832 79.1659 154.876 77.3643 156.121 75.7049C157.378 74.1241 158.812 72.6921 160.393 71.4368C162.102 70.1451 163.957 69.061 165.921 68.207C167.767 67.4579 169.693 66.9258 171.662 66.6212C173.316 66.4115 174.989 66.3984 176.646 66.5822C177.869 66.768 179.068 67.0894 180.221 67.5405C181.187 67.9764 182.103 68.5146 182.955 69.1458C183.853 69.8753 184.671 70.6987 185.395 71.6021C186.142 72.6117 186.776 73.6999 187.287 74.8474C187.759 76.0273 188.097 77.2567 188.294 78.5126C188.427 79.7062 188.427 80.9109 188.293 82.1044Z" fill="#2C2C54"/>
<path d="M100.751 165.028C102.288 165.028 103.534 163.779 103.534 162.239C103.534 160.699 102.288 159.45 100.751 159.45C99.214 159.45 97.968 160.699 97.968 162.239C97.968 163.779 99.214 165.028 100.751 165.028Z" fill="#6C63FF"/>
<path d="M120.697 158.056C122.234 158.056 123.48 156.807 123.48 155.267C123.48 153.726 122.234 152.478 120.697 152.478C119.16 152.478 117.914 153.726 117.914 155.267C117.914 156.807 119.16 158.056 120.697 158.056Z" fill="#6C63FF"/>
<path d="M111.883 179.902C113.421 179.902 114.667 178.653 114.667 177.113C114.667 175.573 113.421 174.324 111.883 174.324C110.346 174.324 109.1 175.573 109.1 177.113C109.1 178.653 110.346 179.902 111.883 179.902Z" fill="#6C63FF"/>
<path d="M194.449 165.028C195.986 165.028 197.232 163.779 197.232 162.239C197.232 160.699 195.986 159.45 194.449 159.45C192.912 159.45 191.666 160.699 191.666 162.239C191.666 163.779 192.912 165.028 194.449 165.028Z" fill="#6C63FF"/>
<path d="M174.503 158.056C176.04 158.056 177.286 156.807 177.286 155.267C177.286 153.726 176.04 152.478 174.503 152.478C172.966 152.478 171.72 153.726 171.72 155.267C171.72 156.807 172.966 158.056 174.503 158.056Z" fill="#6C63FF"/>
<path d="M183.316 179.902C184.853 179.902 186.099 178.653 186.099 177.113C186.099 175.573 184.853 174.324 183.316 174.324C181.779 174.324 180.533 175.573 180.533 177.113C180.533 178.653 181.779 179.902 183.316 179.902Z" fill="#6C63FF"/>
<path d="M196.768 213.834C198.305 213.834 199.551 212.585 199.551 211.045C199.551 209.505 198.305 208.256 196.768 208.256C195.231 208.256 193.985 209.505 193.985 211.045C193.985 212.585 195.231 213.834 196.768 213.834Z" fill="#6C63FF"/>
<path d="M203.726 193.847C205.263 193.847 206.509 192.598 206.509 191.058C206.509 189.517 205.263 188.269 203.726 188.269C202.189 188.269 200.943 189.517 200.943 191.058C200.943 192.598 202.189 193.847 203.726 193.847Z" fill="#6C63FF"/>
<path d="M181.925 202.678C183.462 202.678 184.708 201.43 184.708 199.889C184.708 198.349 183.462 197.1 181.925 197.1C180.388 197.1 179.142 198.349 179.142 199.889C179.142 201.43 180.388 202.678 181.925 202.678Z" fill="#6C63FF"/>
<path d="M116.986 213.834C118.523 213.834 119.769 212.585 119.769 211.045C119.769 209.505 118.523 208.256 116.986 208.256C115.449 208.256 114.203 209.505 114.203 211.045C114.203 212.585 115.449 213.834 116.986 213.834Z" fill="#6C63FF"/>
<path d="M123.944 193.847C125.481 193.847 126.727 192.598 126.727 191.058C126.727 189.517 125.481 188.269 123.944 188.269C122.407 188.269 121.161 189.517 121.161 191.058C121.161 192.598 122.407 193.847 123.944 193.847Z" fill="#6C63FF"/>
<path d="M102.143 202.678C103.68 202.678 104.926 201.43 104.926 199.889C104.926 198.349 103.68 197.1 102.143 197.1C100.606 197.1 99.3596 198.349 99.3596 199.889C99.3596 201.43 100.606 202.678 102.143 202.678Z" fill="#6C63FF"/>
<path d="M182.107 16.8621C183.161 17.3029 184.311 17.4643 185.445 17.3308C186.579 17.1973 187.66 16.7733 188.583 16.0997C190.937 14.3406 191.819 11.27 192.558 8.42293L194.741 0L191.054 2.24334C188.402 3.85631 185.69 5.52273 183.775 7.97149C181.861 10.4202 180.893 13.8518 182.154 16.6934" fill="#6C63FF"/>
<path d="M83.4898 88.8106C84.2016 87.9157 84.6713 86.8521 84.8538 85.7225C85.0363 84.5928 84.9254 83.4351 84.5318 82.3608C83.4881 79.6106 80.7827 77.9192 78.2526 76.4272L70.7666 72.0162L71.9098 76.1843C72.7315 79.1818 73.588 82.2526 75.4139 84.768C77.2399 87.2834 80.2681 89.1565 83.3409 88.7191" fill="#6C63FF"/>
<path d="M259.289 218.495C260.001 217.6 260.47 216.537 260.653 215.407C260.835 214.277 260.724 213.12 260.331 212.045C259.287 209.295 256.582 207.604 254.052 206.112L246.565 201.701L247.709 205.869C248.53 208.866 249.387 211.937 251.213 214.452C253.039 216.968 256.067 218.841 259.14 218.403" fill="#6C63FF"/>
<path d="M117.914 53.9361C119.963 53.9361 121.624 52.2713 121.624 50.2176C121.624 48.1639 119.963 46.499 117.914 46.499C115.864 46.499 114.203 48.1639 114.203 50.2176C114.203 52.2713 115.864 53.9361 117.914 53.9361Z" fill="#6C63FD"/>
<path d="M19.1136 163.633C21.1631 163.633 22.8244 161.969 22.8244 159.915C22.8244 157.861 21.1631 156.196 19.1136 156.196C17.0642 156.196 15.4028 157.861 15.4028 159.915C15.4028 161.969 17.0642 163.633 19.1136 163.633Z" fill="#6C63FD"/>
<path d="M274.231 133.42C276.28 133.42 277.942 131.755 277.942 129.702C277.942 127.648 276.28 125.983 274.231 125.983C272.181 125.983 270.52 127.648 270.52 129.702C270.52 131.755 272.181 133.42 274.231 133.42Z" fill="#6C63FD"/>
<path d="M15.4029 70.2048C17.4524 70.2048 19.1137 68.5399 19.1137 66.4862C19.1137 64.4326 17.4524 62.7677 15.4029 62.7677C13.3535 62.7677 11.6921 64.4326 11.6921 66.4862C11.6921 68.5399 13.3535 70.2048 15.4029 70.2048Z" fill="#BC1058"/>
<path d="M245.008 176.184C247.058 176.184 248.719 174.519 248.719 172.465C248.719 170.411 247.058 168.746 245.008 168.746C242.959 168.746 241.298 170.411 241.298 172.465C241.298 174.519 242.959 176.184 245.008 176.184Z" fill="#BC1058"/>
<path d="M252.43 63.2325C254.479 63.2325 256.141 61.5677 256.141 59.514C256.141 57.4603 254.479 55.7954 252.43 55.7954C250.381 55.7954 248.719 57.4603 248.719 59.514C248.719 61.5677 250.381 63.2325 252.43 63.2325Z" fill="#BC1058"/>
<path d="M89.7242 122.374C89.4034 122.883 88.6257 122.809 88.1889 122.491C87.5826 122.05 87.7789 121.2 88.1964 120.698C89.5233 119.101 91.7179 120.787 92.0139 122.372C92.1239 123.145 92.0052 123.933 91.6723 124.639C91.3394 125.345 90.8071 125.937 90.1413 126.343C88.6274 127.242 86.6609 126.791 85.3593 125.715C82.6441 123.471 83.3833 118.977 86.3993 117.353C88.324 116.317 90.7573 116.771 92.6534 117.639C94.7878 118.617 96.6231 120.114 98.5969 121.363C102.928 124.079 107.827 125.756 112.911 126.261C113.801 126.352 113.795 124.957 112.911 124.866C110.094 124.575 107.327 123.907 104.686 122.882C102.073 121.82 99.5924 120.456 97.2955 118.817C94.9715 117.221 92.5436 115.67 89.6675 115.406C88.5069 115.27 87.331 115.445 86.2596 115.912C85.1881 116.379 84.2592 117.122 83.5673 118.066C82.9518 118.91 82.5399 119.886 82.3637 120.917C82.1875 121.947 82.2518 123.005 82.5517 124.006C82.9131 125.054 83.545 125.986 84.383 126.709C85.221 127.432 86.2352 127.92 87.3224 128.122C88.369 128.321 89.4512 128.186 90.4181 127.739C91.385 127.291 92.1884 126.552 92.7162 125.625C93.7748 123.79 93.7403 121.326 92.1414 119.805C91.6831 119.338 91.1094 119.002 90.4788 118.83C89.8482 118.658 89.1833 118.657 88.5522 118.827C87.9707 119.024 87.459 119.386 87.0798 119.87C86.7006 120.353 86.4703 120.937 86.417 121.55C86.2627 123.931 89.6362 125.122 90.9257 123.078C91.4056 122.317 90.2019 121.617 89.7241 122.374L89.7242 122.374Z" fill="#2C2C54"/>
<path d="M208.723 122.374C209.043 122.883 209.821 122.809 210.258 122.491C210.864 122.05 210.668 121.2 210.25 120.698C208.923 119.101 206.729 120.787 206.433 122.372C206.323 123.145 206.442 123.933 206.775 124.639C207.107 125.345 207.64 125.937 208.306 126.343C209.819 127.242 211.786 126.791 213.088 125.715C215.803 123.471 215.063 118.977 212.048 117.353C210.123 116.317 207.689 116.771 205.793 117.639C203.659 118.617 201.824 120.114 199.85 121.363C195.519 124.079 190.62 125.756 185.536 126.261C184.646 126.352 184.652 124.957 185.536 124.866C188.353 124.575 191.119 123.907 193.761 122.882C196.374 121.82 198.854 120.456 201.151 118.817C203.475 117.221 205.903 115.67 208.779 115.406C209.94 115.27 211.116 115.445 212.187 115.912C213.259 116.379 214.188 117.122 214.88 118.066C215.495 118.91 215.907 119.886 216.083 120.917C216.259 121.947 216.195 123.005 215.895 124.006C215.534 125.054 214.902 125.986 214.064 126.709C213.226 127.432 212.212 127.92 211.124 128.122C210.078 128.321 208.996 128.186 208.029 127.739C207.062 127.291 206.258 126.552 205.731 125.625C204.672 123.79 204.706 121.326 206.305 119.805C206.764 119.338 207.337 119.002 207.968 118.83C208.599 118.658 209.264 118.657 209.895 118.827C210.476 119.024 210.988 119.386 211.367 119.87C211.746 120.353 211.977 120.937 212.03 121.55C212.184 123.931 208.811 125.122 207.521 123.078C207.041 122.317 208.245 121.617 208.723 122.374L208.723 122.374Z" fill="#2C2C54"/>
<path d="M41.2986 16.9021L39.4604 19.213L32.96 15.3597L34.7977 13.0488L41.2986 16.9021Z" fill="#F5D6BA"/>
<path d="M48.0814 26.8307L49.7047 29.2585L42.8757 32.6623L41.2524 30.235L48.0814 26.8307Z" fill="#F5D6BA"/>
<path d="M55.1505 16.2764L58.3945 16.3915L58.0716 23.1936L54.8271 23.0788L55.1505 16.2764Z" fill="#F5D6BA"/>
<path d="M270.904 159.137L269.066 161.448L262.565 157.594L264.404 155.283L270.904 159.137Z" fill="#F5D6BA"/>
<path d="M277.687 169.065L279.31 171.493L272.481 174.897L270.858 172.469L277.687 169.065Z" fill="#F5D6BA"/>
<path d="M284.756 158.511L288 158.626L287.677 165.428L284.433 165.313L284.756 158.511Z" fill="#F5D6BA"/>
</g>
<defs>
<clipPath id="clip0_1320_8662">
<rect width="288" height="222" fill="white"/>
</clipPath>
</defs>
</svg>
