<svg width="288" height="216" viewBox="0 0 288 216" fill="none" xmlns="http://www.w3.org/2000/svg">
<g clip-path="url(#clip0_1320_17449)">
<path opacity="0.1" d="M149.817 215.482C200.391 215.482 241.389 213.263 241.389 210.526C241.389 207.788 200.391 205.569 149.817 205.569C99.2437 205.569 58.2457 207.788 58.2457 210.526C58.2457 213.263 99.2437 215.482 149.817 215.482Z" fill="#6C63FF"/>
<path d="M201.687 191.094L200.899 192.249L196.029 199.495L191.895 200.741L188.81 197.723L188.96 195.73L189.729 185.385C189.729 185.385 170.645 174.157 168.938 172.057C167.232 169.957 160.669 168.054 160.669 168.054C160.669 168.054 150.628 163.394 146.888 155.256C143.147 147.119 153.122 145.872 153.122 145.872L190.596 181.709L201.687 191.094Z" fill="#FFC1C7"/>
<path d="M206.281 195.294L194.402 206.385C194.402 206.385 187.577 207.698 181.473 206.779C177.572 206.191 178.323 204.052 179.35 202.579L179.368 202.553C179.983 201.71 180.882 201.119 181.899 200.888C186.949 199.67 188.692 196.014 188.692 196.014L192.368 199.164L198.733 191.745L203.44 193.955L206.281 195.294Z" fill="#575988"/>
<path opacity="0.1" d="M203.44 193.961L200.644 192.648L200.907 192.249L201.694 191.094L190.596 181.71L153.122 145.877C153.122 145.877 143.147 147.119 146.888 155.256C150.628 163.394 160.669 168.054 160.669 168.054C160.669 168.054 167.232 169.957 168.938 172.057C170.645 174.157 189.742 185.38 189.742 185.38L188.973 195.725L188.936 196.219L188.692 196.011C188.692 196.011 186.949 199.668 181.899 200.886C180.882 201.117 179.983 201.708 179.368 202.55L179.35 202.577C178.3 204.047 177.572 206.186 181.473 206.777C187.577 207.696 194.402 206.383 194.402 206.383L206.281 195.292L203.44 193.961Z" fill="white"/>
<path opacity="0.1" d="M3.11072 112.874C7.6679 132.352 17.3151 149.19 32.5591 157.356C64.2467 174.32 135.705 165.57 189.034 155.519C215.983 150.458 240.444 136.474 258.478 115.819L3.11072 112.874Z" fill="#6C63FF"/>
<path opacity="0.1" d="M282.776 21.19H253.514C252.857 21.1689 252.235 20.8931 251.778 20.4211C251.32 19.9491 251.065 19.3178 251.065 18.6608C251.065 18.0037 251.32 17.3724 251.778 16.9004C252.235 16.4284 252.857 16.1526 253.514 16.1315H258.573C257.902 16.1315 257.259 15.8651 256.785 15.391C256.311 14.917 256.045 14.274 256.045 13.6035C256.045 12.933 256.311 12.29 256.785 11.816C257.259 11.3419 257.902 11.0755 258.573 11.0755H254.96C254.304 11.0544 253.681 10.7786 253.224 10.3066C252.767 9.83457 252.511 9.20329 252.511 8.54624C252.511 7.8892 252.767 7.25791 253.224 6.78589C253.681 6.31386 254.304 6.03812 254.96 6.01696H270.233C266.844 4.44189 262.883 3.32098 258.318 2.73295C216.673 -2.61438 201.805 0.921632 196.56 4.57052C190.089 9.05945 182.87 12.3618 175.155 13.9526C149.46 19.2527 101.408 25.6291 57.8547 11.9103C36.2081 5.08504 20.1214 16.6145 10.4768 35.8722H287.856C287.493 30.2755 286.409 25.1093 284.419 20.5836C283.962 20.9756 283.379 21.1907 282.776 21.19Z" fill="#6C63FF"/>
<path opacity="0.1" d="M0.627362 72.2168C-0.496575 83.5454 -0.115245 94.9729 1.76141 106.201L258.675 115.597C265.828 107.371 271.833 98.2132 276.526 88.3743L0.627362 72.2168ZM102.24 96.4544H97.1813C97.5203 96.4435 97.858 96.5008 98.1744 96.623C98.4908 96.7452 98.7795 96.9297 99.0231 97.1657C99.2668 97.4016 99.4605 97.6841 99.5929 97.9965C99.7252 98.3088 99.7934 98.6445 99.7934 98.9837C99.7934 99.3229 99.7252 99.6586 99.5929 99.9709C99.4605 100.283 99.2668 100.566 99.0231 100.802C98.7795 101.038 98.4908 101.222 98.1744 101.344C97.858 101.467 97.5203 101.524 97.1813 101.513H67.9193C67.2626 101.492 66.6398 101.216 66.1828 100.744C65.7257 100.272 65.4701 99.6407 65.4701 98.9837C65.4701 98.3266 65.7257 97.6953 66.1828 97.2233C66.6398 96.7513 67.2626 96.4755 67.9193 96.4544H72.9778C72.3074 96.4544 71.6644 96.188 71.1903 95.714C70.7162 95.2399 70.4499 94.5969 70.4499 93.9264C70.4499 93.2559 70.7162 92.6129 71.1903 92.1389C71.6644 91.6648 72.3074 91.3984 72.9778 91.3984H69.3657C68.709 91.3773 68.0863 91.1015 67.6292 90.6295C67.1721 90.1575 66.9166 89.5262 66.9166 88.8691C66.9166 88.2121 67.1721 87.5808 67.6292 87.1088C68.0863 86.6368 68.709 86.361 69.3657 86.3399H98.6277C99.2844 86.361 99.9071 86.6368 100.364 87.1088C100.821 87.5808 101.077 88.2121 101.077 88.8691C101.077 89.5262 100.821 90.1575 100.364 90.6295C99.9071 91.1015 99.2844 91.3773 98.6277 91.3984H102.24C102.91 91.3984 103.553 91.6648 104.027 92.1389C104.501 92.6129 104.768 93.2559 104.768 93.9264C104.768 94.5969 104.501 95.2399 104.027 95.714C103.553 96.188 102.91 96.4544 102.24 96.4544Z" fill="#6C63FF"/>
<path opacity="0.1" d="M287.869 36.04L7.38182 42.8653C3.96919 51.6358 1.71947 61.5403 0.669434 71.8281H282.955C284.797 65.7908 286.16 59.6175 287.031 53.3657C287.871 47.3254 288.207 41.4819 287.869 36.04ZM57.6132 58.3902H52.5546C52.8936 58.3792 53.2313 58.4366 53.5477 58.5588C53.8641 58.681 54.1528 58.8655 54.3964 59.1015C54.6401 59.3374 54.8338 59.6199 54.9662 59.9322C55.0985 60.2445 55.1667 60.5803 55.1667 60.9195C55.1667 61.2586 55.0985 61.5944 54.9662 61.9067C54.8338 62.219 54.6401 62.5015 54.3964 62.7374C54.1528 62.9734 53.8641 63.1579 53.5477 63.2801C53.2313 63.4023 52.8936 63.4597 52.5546 63.4487H23.2926C22.6359 63.4276 22.0131 63.1518 21.5561 62.6798C21.099 62.2078 20.8435 61.5765 20.8435 60.9195C20.8435 60.2624 21.099 59.6311 21.5561 59.1591C22.0131 58.6871 22.6359 58.4113 23.2926 58.3902H28.3511C27.6807 58.3902 27.0377 58.1238 26.5636 57.6497C26.0895 57.1757 25.8232 56.5326 25.8232 55.8622C25.8232 55.1917 26.0895 54.5487 26.5636 54.0746C27.0377 53.6006 27.6807 53.3342 28.3511 53.3342H24.739C24.0823 53.3131 23.4596 53.0373 23.0025 52.5653C22.5454 52.0933 22.2899 51.462 22.2899 50.8049C22.2899 50.1479 22.5454 49.5166 23.0025 49.0446C23.4596 48.5726 24.0823 48.2968 24.739 48.2756H54.001C54.6577 48.2968 55.2804 48.5726 55.7375 49.0446C56.1946 49.5166 56.4501 50.1479 56.4501 50.8049C56.4501 51.462 56.1946 52.0933 55.7375 52.5653C55.2804 53.0373 54.6577 53.3131 54.001 53.3342H57.6132C58.2836 53.3342 58.9266 53.6006 59.4007 54.0746C59.8748 54.5487 60.1411 55.1917 60.1411 55.8622C60.1411 56.5326 59.8748 57.1757 59.4007 57.6497C58.9266 58.1238 58.2836 58.3902 57.6132 58.3902Z" fill="#6C63FF"/>
<g opacity="0.1">
<path opacity="0.1" d="M209.302 129.581C209.302 129.581 216.705 111.336 230.529 104.569C236.345 101.768 241.096 97.1543 244.066 91.4221C245.456 88.6905 246.592 85.8374 247.46 82.8984" stroke="#535461" stroke-width="2" stroke-miterlimit="10"/>
<path opacity="0.1" d="M256.147 78.5826C254.706 80.3939 247.248 83.0453 247.248 83.0453C247.248 83.0453 248.146 75.1831 249.587 73.3718C249.916 72.9023 250.337 72.5052 250.825 72.2047C251.313 71.9042 251.857 71.7068 252.424 71.6245C252.991 71.5423 253.569 71.577 254.123 71.7265C254.676 71.876 255.193 72.1371 255.641 72.4938C256.09 72.8504 256.461 73.2952 256.731 73.8005C257.001 74.3059 257.165 74.8612 257.213 75.4323C257.26 76.0034 257.191 76.5782 257.008 77.1213C256.825 77.6645 256.533 78.1644 256.149 78.5905L256.147 78.5826Z" fill="#6C63FF"/>
<path opacity="0.1" d="M253.587 92.9289C251.393 93.6665 243.696 91.8316 243.696 91.8316C243.696 91.8316 248.723 85.7203 250.918 84.9827C251.449 84.7648 252.02 84.6583 252.594 84.6698C253.169 84.6812 253.735 84.8104 254.257 85.0493C254.78 85.2882 255.247 85.6317 255.632 86.0587C256.016 86.4856 256.309 86.9869 256.492 87.5314C256.675 88.076 256.744 88.6524 256.696 89.2248C256.647 89.7972 256.481 90.3536 256.209 90.8595C255.937 91.3654 255.564 91.81 255.113 92.166C254.662 92.5219 254.143 92.7816 253.587 92.9289Z" fill="#6C63FF"/>
<path opacity="0.1" d="M239.711 109.889C237.446 109.417 231.726 103.949 231.726 103.949C231.726 103.949 239.152 101.211 241.417 101.681C242.448 101.963 243.333 102.627 243.891 103.539C244.449 104.45 244.639 105.54 244.422 106.587C244.204 107.633 243.596 108.558 242.721 109.171C241.845 109.785 240.769 110.042 239.711 109.889Z" fill="#6C63FF"/>
<path opacity="0.1" d="M226.323 120.356C224.01 120.277 217.448 115.851 217.448 115.851C217.448 115.851 224.304 111.898 226.617 111.979C227.192 111.961 227.764 112.061 228.299 112.274C228.833 112.486 229.318 112.806 229.724 113.213C230.13 113.62 230.448 114.107 230.658 114.642C230.868 115.177 230.966 115.75 230.946 116.325C230.926 116.899 230.788 117.464 230.541 117.983C230.293 118.502 229.942 118.965 229.509 119.343C229.075 119.721 228.569 120.006 228.021 120.18C227.473 120.354 226.895 120.414 226.323 120.356Z" fill="#6C63FF"/>
<path opacity="0.1" d="M236.53 86.7045C236.824 89.0015 241.838 95.1232 241.838 95.1232C241.838 95.1232 245.14 87.9304 244.843 85.6361C244.638 84.59 244.043 83.6611 243.178 83.0377C242.313 82.4143 241.244 82.143 240.186 82.2789C239.129 82.4148 238.163 82.9476 237.484 83.7694C236.805 84.5912 236.464 85.6405 236.53 86.7045Z" fill="#6C63FF"/>
<path opacity="0.1" d="M221.026 99.1449C221.994 101.245 228.612 105.59 228.612 105.59C228.612 105.59 229.607 97.7405 228.638 95.6378C228.129 94.7016 227.283 93.9939 226.272 93.6582C225.26 93.3225 224.159 93.3838 223.191 93.8297C222.223 94.2756 221.461 95.0728 221.059 96.0597C220.657 97.0466 220.645 98.1495 221.026 99.1449Z" fill="#6C63FF"/>
<path opacity="0.1" d="M207.617 113.305C208.218 115.541 214.004 120.939 214.004 120.939C214.004 120.939 216.314 113.37 215.715 111.134C215.375 110.12 214.661 109.274 213.719 108.769C212.777 108.263 211.678 108.135 210.645 108.412C209.613 108.689 208.724 109.349 208.162 110.258C207.599 111.168 207.404 112.257 207.617 113.305Z" fill="#6C63FF"/>
<path opacity="0.25" d="M256.147 78.5826C254.706 80.3939 247.248 83.0453 247.248 83.0453C247.248 83.0453 248.146 75.1831 249.587 73.3718C249.916 72.9023 250.337 72.5052 250.825 72.2047C251.313 71.9042 251.857 71.7068 252.424 71.6245C252.991 71.5423 253.569 71.577 254.123 71.7265C254.676 71.876 255.193 72.1371 255.641 72.4938C256.09 72.8504 256.461 73.2952 256.731 73.8005C257.001 74.3059 257.165 74.8612 257.213 75.4323C257.26 76.0034 257.191 76.5782 257.008 77.1213C256.825 77.6645 256.533 78.1644 256.149 78.5905L256.147 78.5826Z" fill="white"/>
<path opacity="0.25" d="M253.587 92.9289C251.393 93.6665 243.696 91.8316 243.696 91.8316C243.696 91.8316 248.723 85.7203 250.918 84.9827C251.449 84.7648 252.02 84.6583 252.594 84.6698C253.169 84.6812 253.735 84.8104 254.257 85.0493C254.78 85.2882 255.247 85.6317 255.632 86.0587C256.016 86.4856 256.309 86.9869 256.492 87.5314C256.675 88.076 256.744 88.6524 256.696 89.2248C256.647 89.7972 256.481 90.3536 256.209 90.8595C255.937 91.3654 255.564 91.81 255.113 92.166C254.662 92.5219 254.143 92.7816 253.587 92.9289Z" fill="white"/>
<path opacity="0.25" d="M239.711 109.889C237.446 109.417 231.726 103.949 231.726 103.949C231.726 103.949 239.152 101.211 241.417 101.681C242.448 101.963 243.333 102.627 243.891 103.539C244.449 104.45 244.639 105.54 244.422 106.587C244.204 107.633 243.596 108.558 242.721 109.171C241.845 109.785 240.769 110.042 239.711 109.889Z" fill="white"/>
<path opacity="0.25" d="M226.323 120.356C224.01 120.277 217.448 115.851 217.448 115.851C217.448 115.851 224.304 111.898 226.617 111.979C227.192 111.961 227.764 112.061 228.299 112.274C228.833 112.486 229.318 112.806 229.724 113.213C230.13 113.62 230.448 114.107 230.658 114.642C230.868 115.177 230.966 115.75 230.946 116.325C230.926 116.899 230.788 117.464 230.541 117.983C230.293 118.502 229.942 118.965 229.509 119.343C229.075 119.721 228.569 120.006 228.021 120.18C227.473 120.354 226.895 120.414 226.323 120.356Z" fill="white"/>
<path opacity="0.25" d="M236.53 86.7045C236.824 89.0015 241.838 95.1232 241.838 95.1232C241.838 95.1232 245.14 87.9304 244.843 85.6361C244.638 84.59 244.043 83.6611 243.178 83.0377C242.313 82.4143 241.244 82.143 240.186 82.2789C239.129 82.4148 238.163 82.9476 237.484 83.7694C236.805 84.5912 236.464 85.6405 236.53 86.7045Z" fill="white"/>
<path opacity="0.25" d="M221.026 99.1449C221.994 101.245 228.612 105.59 228.612 105.59C228.612 105.59 229.607 97.7405 228.638 95.6378C228.129 94.7016 227.283 93.9939 226.272 93.6582C225.26 93.3225 224.159 93.3838 223.191 93.8297C222.223 94.2756 221.461 95.0728 221.059 96.0597C220.657 97.0466 220.645 98.1495 221.026 99.1449Z" fill="white"/>
<path opacity="0.25" d="M207.617 113.305C208.218 115.541 214.004 120.939 214.004 120.939C214.004 120.939 216.314 113.37 215.715 111.134C215.375 110.12 214.661 109.274 213.719 108.769C212.777 108.263 211.678 108.135 210.645 108.412C209.613 108.689 208.724 109.349 208.162 110.258C207.599 111.168 207.404 112.257 207.617 113.305Z" fill="white"/>
</g>
<g opacity="0.1">
<path opacity="0.1" d="M197.515 100.392C197.515 100.392 198.45 80.7244 209.247 69.7541C213.805 65.1827 216.757 59.2562 217.66 52.8642C218.063 49.8236 218.186 46.7525 218.028 43.6895" stroke="#535461" stroke-width="2" stroke-miterlimit="10"/>
<path opacity="0.1" d="M224.798 36.7331C224.039 38.9224 217.881 43.8891 217.881 43.8891C217.881 43.8891 216.122 36.174 216.878 33.9872C217.292 33.0045 218.065 32.2162 219.039 31.7823C220.014 31.3484 221.117 31.3013 222.124 31.6507C223.132 32 223.969 32.7197 224.465 33.6635C224.962 34.6074 225.081 35.7048 224.798 36.7331Z" fill="#6C63FF"/>
<path opacity="0.1" d="M227.142 51.1188C225.305 52.5416 217.445 53.3659 217.445 53.3659C217.445 53.3659 220.162 45.9316 221.986 44.5088C222.868 43.9079 223.946 43.6653 225 43.8303C226.055 43.9952 227.007 44.5553 227.663 45.3968C228.319 46.2382 228.631 47.298 228.534 48.3608C228.437 49.4236 227.94 50.4097 227.142 51.1188Z" fill="#6C63FF"/>
<path opacity="0.1" d="M219.676 71.7206C217.382 72.0277 210.171 68.7647 210.171 68.7647C210.171 68.7647 216.269 63.7193 218.571 63.4122C219.636 63.3393 220.688 63.6742 221.514 64.3489C222.341 65.0236 222.879 65.9874 223.021 67.0448C223.163 68.1022 222.897 69.1739 222.277 70.0423C221.657 70.9107 220.73 71.5107 219.684 71.7206H219.676Z" fill="#6C63FF"/>
<path opacity="0.1" d="M210.515 86.035C208.307 86.728 200.65 84.7224 200.65 84.7224C200.65 84.7224 205.805 78.7215 208.016 78.0311C208.552 77.8214 209.126 77.7244 209.702 77.7461C210.278 77.7679 210.843 77.9078 211.362 78.1573C211.882 78.4067 212.344 78.7604 212.721 79.1962C213.098 79.6321 213.381 80.1408 213.553 80.6907C213.725 81.2407 213.782 81.8201 213.72 82.393C213.658 82.9658 213.479 83.5199 213.194 84.0206C212.91 84.5214 212.525 84.9582 212.064 85.3038C211.603 85.6495 211.075 85.8966 210.515 86.0297V86.035Z" fill="#6C63FF"/>
<path opacity="0.1" d="M208.984 50.9032C210.034 52.9717 216.786 57.0853 216.786 57.0853C216.786 57.0853 217.513 49.21 216.474 47.1388C215.934 46.2195 215.064 45.5402 214.041 45.2385C213.018 44.9368 211.919 45.0354 210.967 45.5143C210.014 45.9931 209.279 46.8164 208.911 47.8171C208.543 48.8179 208.569 49.9211 208.984 50.9032Z" fill="#6C63FF"/>
<path opacity="0.1" d="M198.484 67.783C200.096 69.4447 207.777 71.3479 207.777 71.3479C207.777 71.3479 206.115 63.6091 204.503 61.9474C203.713 61.2286 202.679 60.838 201.61 60.855C200.542 60.872 199.521 61.2954 198.754 62.039C197.987 62.7826 197.532 63.7905 197.482 64.8576C197.432 65.9247 197.79 66.9708 198.484 67.783Z" fill="#6C63FF"/>
<path opacity="0.1" d="M190.53 85.5864C191.842 87.4974 199.088 90.6712 199.088 90.6712C199.088 90.6712 198.754 82.7644 197.45 80.8533C196.79 80.0207 195.839 79.469 194.789 79.3094C193.738 79.1498 192.667 79.3942 191.789 79.9933C190.912 80.5924 190.294 81.5017 190.061 82.5381C189.827 83.5744 189.995 84.6609 190.53 85.5785V85.5864Z" fill="#6C63FF"/>
</g>
<path opacity="0.1" d="M113.145 22.4445C113.145 22.4445 106.889 22.0692 107.632 26.4531C107.594 26.6755 107.627 26.9043 107.727 27.1066C107.827 27.3089 107.989 27.4744 108.188 27.5793C108.188 27.5793 108.188 27.2537 108.829 27.364C109.053 27.403 109.282 27.4145 109.509 27.3981C109.816 27.3768 110.108 27.2561 110.341 27.0542C110.341 27.0542 112.1 26.3271 112.782 23.4526C112.782 23.4526 113.289 22.8252 113.268 22.6651L112.218 23.1166C112.218 23.1166 112.578 23.8779 112.294 24.5105C112.294 24.5105 112.26 23.1428 112.058 23.1743C112.016 23.1743 111.509 23.4368 111.509 23.4368C111.509 23.4368 112.131 24.7651 111.661 25.7286C111.661 25.7286 111.84 24.0931 111.315 23.534L110.572 23.9671C110.572 23.9671 111.297 25.3374 110.806 26.4557C110.806 26.4557 110.932 24.7415 110.417 24.0721L109.742 24.5971C109.742 24.5971 110.425 25.9491 110.005 26.8757C110.005 26.8757 109.952 24.878 109.593 24.7284C109.338 24.9441 109.111 25.1901 108.916 25.4608C108.916 25.4608 109.38 26.4426 109.091 26.9597C109.091 26.9597 108.916 25.6288 108.769 25.6235C108.769 25.6235 108.181 26.5056 108.12 27.1094C108.148 26.5491 108.323 26.006 108.627 25.5343C108.288 25.5985 107.975 25.76 107.726 25.9989C107.726 25.9989 107.818 25.3768 108.776 25.3217C108.776 25.3217 109.262 24.6523 109.391 24.6129C109.391 24.6129 108.443 24.5315 107.871 24.7888C107.871 24.7888 108.375 24.2007 109.564 24.4659L110.231 23.9251C110.231 23.9251 108.984 23.7545 108.454 23.9409C108.454 23.9409 109.063 23.4158 110.409 23.8017L111.134 23.3686C110.577 23.2452 110.005 23.1958 109.435 23.2216C109.435 23.2216 110.105 22.8619 111.346 23.2505L111.871 23.0194C111.871 23.0194 111.084 22.8672 110.863 22.8409C110.643 22.8147 110.624 22.7543 110.624 22.7543C111.118 22.6721 111.624 22.7284 112.087 22.9171C112.087 22.9171 113.166 22.5154 113.145 22.4445Z" fill="#6C63FF"/>
<path opacity="0.1" d="M96.7167 43.7789C96.7167 43.7789 94.5799 49.6722 98.9927 50.2104C99.1955 50.3097 99.4246 50.3424 99.6471 50.3038C99.8696 50.2651 100.074 50.1571 100.232 49.9951C100.232 49.9951 99.9219 49.8928 100.208 49.3205C100.306 49.1156 100.378 48.8996 100.423 48.6773C100.491 48.3769 100.458 48.0627 100.331 47.7822C100.331 47.7822 100.135 45.8895 97.5725 44.4194C97.5725 44.4194 97.1131 43.7553 96.953 43.729L97.0868 44.8683C97.0868 44.8683 97.919 44.7397 98.4466 45.1912C98.4466 45.1912 97.1341 44.8368 97.0973 45.0389C97.0973 45.0809 97.1945 45.6401 97.1945 45.6401C97.1945 45.6401 98.6435 45.4222 99.4363 46.1441C99.4363 46.1441 97.919 45.5115 97.2338 45.8527L97.4386 46.6901C97.4386 46.6901 98.9585 46.383 99.8904 47.1731C99.8904 47.1731 98.2813 46.5641 97.4937 46.8686L97.8061 47.6562C97.8061 47.6562 99.2945 47.3937 100.066 48.0473C100.066 48.0473 98.1369 47.5223 97.8901 47.8347C98.0247 48.1408 98.1966 48.4292 98.402 48.6931C98.402 48.6931 99.473 48.5251 99.8878 48.9556C99.8878 48.9556 98.5621 48.7482 98.5149 48.8873C98.5149 48.8873 99.1922 49.7011 99.7539 49.9374C99.2272 49.7518 98.7584 49.4314 98.3941 49.0081C98.3622 49.347 98.4288 49.6879 98.5858 49.9899C98.5858 49.9899 98.0161 49.7274 98.234 48.7981C98.234 48.7981 97.73 48.1418 97.7274 48.0106C97.7274 48.0106 97.3835 48.8978 97.4649 49.52C97.4649 49.52 97.0448 48.869 97.6381 47.8032L97.3073 47.0156C97.3073 47.0156 96.7823 48.1628 96.8191 48.722C96.8191 48.722 96.4936 47.9922 97.2391 46.8083L97.0291 45.9918C96.755 46.488 96.5459 47.0174 96.4069 47.5669C96.4069 47.5669 96.2521 46.8214 96.9792 45.7451L96.9031 45.1807C96.9031 45.1807 96.5356 45.8842 96.4463 46.0968C96.3571 46.3095 96.2941 46.3016 96.2941 46.3016C96.3562 45.8052 96.5542 45.3355 96.8663 44.9444C96.8663 44.9444 96.7902 43.7815 96.7167 43.7789Z" fill="#6C63FF"/>
<path opacity="0.1" d="M138.204 38.8147C138.204 38.8147 136.064 44.7054 140.48 45.2436C140.682 45.3431 140.91 45.376 141.132 45.3379C141.354 45.2997 141.559 45.1922 141.716 45.031C141.716 45.031 141.409 44.9286 141.692 44.3537C141.793 44.1492 141.869 43.9332 141.918 43.7105C141.986 43.4107 141.953 43.0969 141.824 42.818C141.824 42.818 141.627 40.9253 139.065 39.4526C139.065 39.4526 138.608 38.7885 138.448 38.7622L138.579 39.9041C138.579 39.9041 139.414 39.7729 139.939 40.2244C139.939 40.2244 138.626 39.87 138.592 40.0748C138.592 40.1141 138.689 40.6759 138.689 40.6759C138.689 40.6759 140.138 40.4554 140.929 41.1799C140.929 41.1799 139.414 40.5447 138.726 40.8885L138.931 41.7233C138.931 41.7233 140.451 41.4162 141.385 42.2063C141.385 42.2063 139.776 41.5973 138.989 41.9045L139.301 42.692C139.301 42.692 140.789 42.4295 141.561 43.0831C141.561 43.0831 139.632 42.5581 139.385 42.8679C139.519 43.1735 139.69 43.4618 139.894 43.7263C139.894 43.7263 140.968 43.5583 141.383 43.9888C141.383 43.9888 140.054 43.7814 140.01 43.9179C140.01 43.9179 140.687 44.7317 141.249 44.968C140.721 44.7813 140.252 44.46 139.886 44.036C139.852 44.3793 139.918 44.7252 140.078 45.031C140.078 45.031 139.506 44.7684 139.724 43.8365C139.724 43.8365 139.222 43.1829 139.22 43.049C139.22 43.049 138.873 43.9337 138.957 44.5584C138.957 44.5584 138.537 43.9048 139.133 42.8416L138.8 42.0541C138.8 42.0541 138.275 43.2013 138.314 43.763C138.314 43.763 137.988 43.0306 138.734 41.8467L138.524 41.0303C138.249 41.5262 138.04 42.0556 137.902 42.6054C137.902 42.6054 137.744 41.8625 138.472 40.7835L138.395 40.2218C138.395 40.2218 138.028 40.9253 137.941 41.1353C137.855 41.3453 137.789 41.3427 137.789 41.3427C137.85 40.8458 138.048 40.3758 138.361 39.9855C138.361 39.9855 138.275 38.8147 138.204 38.8147Z" fill="#6C63FF"/>
<path opacity="0.1" d="M70.4158 31.4332C70.4158 31.4332 68.2763 37.3265 72.6917 37.862C72.8937 37.9623 73.1224 37.9958 73.3447 37.9575C73.5669 37.9193 73.7713 37.8114 73.9282 37.6494C73.9282 37.6494 73.621 37.547 73.9045 36.9748C74.0043 36.7698 74.0801 36.554 74.1303 36.3316C74.1967 36.0309 74.1635 35.7167 74.0358 35.4365C74.0358 35.4365 73.8389 33.5438 71.2768 32.0711C71.2768 32.0711 70.82 31.4096 70.6599 31.3833L70.7912 32.5226C70.7912 32.5226 71.6233 32.394 72.151 32.8455C72.151 32.8455 70.8384 32.4885 70.8043 32.6932C70.8043 32.7352 70.9014 33.2944 70.9014 33.2944C70.9014 33.2944 72.3505 33.0765 73.1406 33.7984C73.1406 33.7984 71.6233 33.1631 70.9382 33.507L71.1429 34.3444C71.1429 34.3444 72.6629 34.0373 73.5948 34.8274C73.5948 34.8274 71.9882 34.2184 71.2007 34.5229L71.5131 35.3105C71.5131 35.3105 73.0015 35.0479 73.7733 35.7016C73.7733 35.7016 71.8412 35.1766 71.5971 35.4863C71.7314 35.7929 71.9024 36.082 72.1064 36.3474C72.1064 36.3474 73.18 36.1767 73.5922 36.6099C73.5922 36.6099 72.2665 36.4025 72.2192 36.5416C72.2192 36.5416 72.8991 37.3528 73.4609 37.5917C72.9328 37.4061 72.4629 37.0847 72.0985 36.6598C72.0637 37.003 72.1303 37.3489 72.2901 37.6547C72.2901 37.6547 71.7178 37.3922 71.9357 36.4629C71.9357 36.4629 71.4317 35.8066 71.4317 35.6753C71.4317 35.6753 71.0852 36.5626 71.1692 37.1848C71.1692 37.1848 70.7492 36.5337 71.3424 35.468L71.0117 34.6804C71.0117 34.6804 70.4867 35.8302 70.5234 36.3894C70.5234 36.3894 70.1979 35.6596 70.9434 34.4757L70.736 33.6566C70.4613 34.1525 70.2522 34.6819 70.1139 35.2317C70.1139 35.2317 69.9564 34.4888 70.6835 33.4099L70.6074 32.8481C70.6074 32.8481 70.2399 33.5516 70.1533 33.7643C70.0666 33.9769 70.001 33.969 70.001 33.969C70.0615 33.4726 70.2587 33.0027 70.5707 32.6118C70.5707 32.6118 70.4972 31.4358 70.4158 31.4332Z" fill="#6C63FF"/>
<path opacity="0.1" d="M136.138 71.4079C136.138 71.4079 137.789 77.4456 141.706 75.3456C141.928 75.3102 142.134 75.2053 142.293 75.0459C142.453 74.8865 142.558 74.6809 142.593 74.4583C142.593 74.4583 142.283 74.5502 142.183 73.9175C142.148 73.6929 142.085 73.4735 141.997 73.2639C141.878 72.9803 141.671 72.7427 141.406 72.5866C141.406 72.5866 140.154 71.1559 137.206 71.4289C137.206 71.4289 136.45 71.1506 136.303 71.2215L137.07 72.0773C137.07 72.0773 137.674 71.4919 138.364 71.5523C138.364 71.5523 137.08 72.0222 137.177 72.2033C137.196 72.2401 137.603 72.6391 137.603 72.6391C137.603 72.6391 138.653 71.6258 139.724 71.7597C139.724 71.7597 138.12 72.1167 137.755 72.7913L138.406 73.3584C138.406 73.3584 139.472 72.2296 140.687 72.3372C140.687 72.3372 139.023 72.7677 138.556 73.4712L139.27 73.9411C139.27 73.9411 140.32 72.8622 141.341 72.9567C141.341 72.9567 139.469 73.6497 139.44 74.0356C139.727 74.2086 140.034 74.3461 140.354 74.4452C140.354 74.4452 141.141 73.6891 141.714 73.7967C141.714 73.7967 140.511 74.39 140.553 74.5318C140.553 74.5318 141.574 74.7943 142.168 74.6683C141.63 74.8205 141.061 74.8287 140.519 74.6919C140.688 74.9922 140.941 75.2367 141.246 75.3954C141.246 75.3954 140.627 75.5083 140.27 74.6237C140.27 74.6237 139.482 74.3795 139.401 74.2693C139.401 74.2693 139.629 75.1907 140.057 75.6527C140.057 75.6527 139.338 75.3639 139.209 74.1511L138.487 73.7022C138.487 73.7022 138.724 74.9387 139.073 75.3797C139.073 75.3797 138.385 74.9702 138.311 73.5736L137.668 73.0276C137.732 73.5941 137.869 74.1499 138.075 74.6814C138.075 74.6814 137.519 74.1564 137.492 72.8622L137.104 72.4474C137.104 72.4474 137.209 73.235 137.261 73.4581C137.314 73.6812 137.261 73.7206 137.261 73.7206C137.024 73.2798 136.914 72.7818 136.944 72.2821C136.944 72.2821 136.198 71.3659 136.138 71.4079Z" fill="#6C63FF"/>
<path d="M214.075 105.466C214.647 106.128 215.279 106.736 215.962 107.283L221.076 111.64C221.987 112.415 222.913 113.216 224.068 113.58C224.752 113.795 225.475 113.85 226.184 113.742C226.892 113.633 227.565 113.363 228.153 112.953L228.066 112.924L228.153 112.866C227.289 112.588 226.405 112.299 225.693 111.74C225.4 111.521 225.154 111.245 224.968 110.93C224.783 110.614 224.661 110.265 224.612 109.903C224.612 109.866 224.612 109.832 224.612 109.795C224.614 109.696 224.623 109.596 224.641 109.498C225.742 109.404 226.802 109.031 227.72 108.414L227.631 108.383L227.72 108.328C224.995 107.453 223.108 104.897 222.252 102.19C221.396 99.4836 221.393 96.6012 221.301 93.7688C221.21 90.9363 221 88.025 219.776 85.4629C219.317 84.5021 218.726 83.5886 218.503 82.5491C218.442 82.2405 218.413 81.9265 218.416 81.6119C218.435 80.6012 218.729 79.5853 218.999 78.5983C219.6 76.3939 220.08 74.1584 220.438 71.9017C220.578 71.0995 220.657 70.2877 220.671 69.4734C220.696 68.6787 220.569 67.8866 220.296 67.1397C219.094 64.0158 214.915 62.5432 214.277 59.2644C214.202 58.8231 214.17 58.3756 214.182 57.9282C214.182 57.6815 214.182 57.4373 214.182 57.1932C214.182 56.9491 214.182 56.6682 214.161 56.4267C213.98 54.1192 212.552 52.1163 211.174 50.2446C209.515 47.9922 207.761 45.6506 205.212 44.451C203.233 43.5138 200.587 43.204 198.227 43.414C197.168 42.5004 196.007 41.712 194.767 41.0646C192.963 40.0618 191.092 39.0747 189.094 38.8542C186.561 38.576 184.057 39.5473 181.515 39.71C178.061 39.9332 174.669 38.66 171.214 38.3975C167.76 38.135 163.783 39.2979 162.239 42.7761C161.877 43.6207 161.657 44.5192 161.588 45.4354C161.573 45.6113 161.562 45.7845 161.554 45.9604V45.9788C161.528 46.689 161.549 47.4001 161.614 48.1077V48.1891C161.614 48.3309 161.641 48.4726 161.657 48.6144C161.657 48.6564 161.657 48.6957 161.67 48.7377C161.67 48.869 161.699 49.0003 161.714 49.1315L161.73 49.2549C161.751 49.4203 161.775 49.5857 161.796 49.751C161.836 50.0916 161.909 50.4274 162.014 50.7538C162.078 50.9424 162.172 51.1197 162.292 51.2788C162.667 51.7566 163.232 51.8984 163.814 51.9876L164.274 52.0533C164.226 52.1478 164.177 52.2423 164.132 52.3394C163.09 54.5353 162.552 56.9363 162.557 59.3668C162.557 67.6254 168.671 74.4716 176.659 75.7159L177.139 76.3144C180.085 80.0053 183.781 84.9327 185.54 88.4792C183.508 91.0019 181.13 95.4751 180.452 102.978L179.447 105.324C177.339 108.356 176.795 112.73 177.339 116.799C176.746 118.999 176.068 121.763 175.598 124.049C172.104 123.275 160.179 121.359 157.359 119.497L149.09 115.602C149.09 115.602 138.327 108.083 132.536 110.593C130.323 107.873 126.984 105.025 125.546 103.949C123.078 102.098 116.941 94.8687 116.941 94.8687L107.325 82.1054C107.299 80.6275 107.141 79.3648 106.737 78.8214C105.603 77.3041 99.5991 73.9361 98.3994 74.6633C97.1997 75.3904 96.1969 73.0882 96.1969 73.0882L96.1051 73.0383C95.8793 72.9071 95.2388 72.5448 94.3489 72.067C94.3021 71.0016 94.3284 69.9341 94.4276 68.8723C94.446 68.6938 94.4696 68.5153 94.4959 68.3473C97.6833 68.2322 100.746 67.079 103.218 65.0632C105.689 63.0474 107.435 60.2792 108.188 57.1801C108.23 57.0147 108.259 56.8441 108.293 56.6761C108.724 56.776 109.173 56.7638 109.597 56.6406C110.021 56.5174 110.407 56.2874 110.716 55.9725C111.556 55.0695 111.593 53.6808 111.325 52.4838C111.058 51.2867 110.538 50.1396 110.407 48.9163C110.241 47.2493 110.829 45.5036 110.288 43.9286C109.834 42.5845 108.637 41.608 107.362 40.9701C106.086 40.3322 104.689 39.9594 103.384 39.3793C102.14 38.828 100.983 38.0877 99.691 37.6519C98.0161 37.0875 96.2153 37.0665 94.4407 37.1085C93.3277 36.6597 92.1937 36.2318 91.0019 36.0979C89.6893 35.9483 88.2455 36.2029 87.2453 37.077C86.4578 37.7753 85.8173 38.8962 84.7489 38.933C84.2239 38.9514 83.7513 38.6915 83.2841 38.4683C81.9584 37.8331 80.2809 37.4734 79.0839 38.3161C78.1231 38.9881 77.7713 40.2245 77.606 41.377C77.4406 42.5294 77.4117 43.7396 76.8552 44.7712C76.5113 45.4065 75.9889 45.9236 75.5558 46.5012C74.4594 47.9672 73.9425 49.7861 74.1041 51.6096V51.6621C74.0411 51.3996 73.9807 51.1555 73.9361 50.8982C73.9361 51.0925 73.9361 51.2841 73.9623 51.4784C74.0764 52.379 74.2724 53.2673 74.5477 54.1323L75.6345 57.9387C76.1858 59.8708 76.7502 61.8318 77.8002 63.5512C78.2098 64.2286 78.7048 64.8506 79.2729 65.4019C80.1678 66.3415 81.3127 67.0055 82.5727 67.3156C83.0152 67.4149 83.4707 67.4424 83.922 67.397C83.922 67.4521 83.9088 67.5046 83.8983 67.5597C83.8012 67.5414 83.7015 67.5204 83.6096 67.5072C83.1831 67.4183 82.7418 67.43 82.3207 67.5414C80.2468 68.279 79.6168 70.5235 79.433 71.4055C79.391 71.6313 79.3779 71.7678 79.3779 71.7678C79.3779 71.7678 79.412 71.899 79.4514 72.1222L79.433 72.1983C79.391 72.4214 79.3779 72.5606 79.3779 72.5606C79.3779 72.5606 79.412 72.6918 79.4514 72.9202L78.9106 72.9333L69.8672 74.1146C67.8012 73.9729 65.835 73.9387 64.7823 74.1907C64.6933 74.2104 64.6056 74.2358 64.5198 74.2669C63.2073 74.721 57.1932 78.8713 51.796 82.6908C51.796 82.5858 51.796 82.4834 51.7802 82.3837L50.2445 83.4757C50.2445 83.5781 50.2445 83.6857 50.2445 83.7934C49.8613 84.0559 49.4806 84.3341 49.1131 84.5993C47.4619 85.7806 45.963 86.8464 44.8473 87.6628C43.4875 88.6393 42.6448 89.2562 42.6448 89.2562C42.6448 89.2562 42.1461 89.419 41.8153 90.1881C41.39 91.1725 41.243 93.1519 42.7787 97.0475C45.5141 103.98 46.1126 108.669 46.1126 108.669C45.3705 108.746 44.6421 108.923 43.9469 109.194C42.9992 109.572 42.0096 110.212 41.5974 111.294C41.3329 112.049 41.3264 112.871 41.5791 113.63C42.8444 118.119 63.7901 143.609 63.7901 143.609L64.0526 143.633C65.1268 143.727 66.2072 143.727 67.2814 143.633C68.2606 143.53 69.1768 143.297 69.5968 142.803C69.5968 142.803 74.2406 148.765 81.0606 144.704C81.0133 150.111 80.8768 154.078 81.7353 156.076C83.0714 159.178 83.0714 166.243 83.0714 166.243L84.342 166.287C84.2737 166.55 84.1976 166.812 84.1162 167.075C83.5308 169.009 82.6672 171.348 81.7536 171.908C80.2153 172.853 80.9451 189.097 81.0081 190.499C81.0081 190.554 81.0081 190.583 81.0081 190.583L80.9188 197.145V197.67C80.7281 197.414 80.557 197.144 80.4069 196.862C80.4069 196.862 77.9341 199.224 77.8895 204.212C77.8449 209.2 77.9341 209.368 77.9341 209.368C77.9341 209.368 87.9095 208.982 89.7812 209.67C91.6529 210.357 107.306 209.071 107.306 209.071C107.306 209.071 107.887 207.564 106.217 206.407C108.879 206.215 111.782 205.706 113.483 204.472C117.224 201.771 105.936 199.665 105.149 199.237C104.361 198.81 100.46 195.368 98.8483 194.079C98.3611 193.723 97.7852 193.509 97.184 193.46L97.3861 187.577C99.7881 184.87 102.39 169.947 102.39 169.947C103.24 169.238 103.61 167.513 103.762 166.46C104.073 166.357 104.345 166.161 104.541 165.899C104.736 165.637 104.847 165.32 104.857 164.993C107.606 165.085 111.063 165.064 111.727 164.405C112.861 163.281 112.727 159.451 112.727 159.451L111.126 118.909L111.021 118.754C111.286 116.899 111.291 115.015 111.037 113.158C114.633 114.184 117.431 114.882 117.431 114.882C117.431 114.882 122.844 115.88 126.643 116.72C126.021 117.38 125.552 118.169 125.267 119.03C121.855 128.743 141.21 128.341 141.21 128.341L150.348 132.568L171.858 139.598C164.946 137.558 157.049 135.159 151.676 133.513C151.147 133.351 150.609 133.22 150.064 133.122C145.134 132.229 140.013 134.025 136.873 137.986C136.836 138.036 136.802 138.08 136.763 138.128C136.011 139.106 135.592 140.299 135.567 141.532C135.543 142.766 135.914 143.975 136.626 144.982C137.448 146.145 138.548 147.691 139.837 149.489C137.109 150.313 132.597 152.61 135.34 158.517C139.141 166.705 149.345 171.38 149.345 171.38C149.345 171.38 156.015 173.296 157.745 175.409C158.231 176.003 160.108 177.318 162.562 178.903C164.137 180.57 165.371 181.66 166.103 181.901C169.028 182.865 174.722 187.488 178.728 190.955L178.126 199.24L178.087 199.739L177.84 199.529C177.84 199.529 176.068 203.204 170.934 204.435C169.904 204.667 168.991 205.261 168.364 206.11L168.345 206.134L168.193 206.354L168.077 206.268C167.027 207.745 166.539 209.898 170.503 210.491C176.706 211.415 183.629 210.095 183.629 210.095L189.813 204.377C190.501 204.956 191.307 205.374 192.176 205.603C196.799 206.653 209.783 211.678 209.783 211.678C209.783 210.268 221.257 192.134 221.257 192.134C236.745 162.817 219.902 140.908 218.041 138.627L217.876 138.427L217.731 135.991L217.7 135.432C217.7 135.432 226.058 131.736 222.856 129.977C219.653 128.218 217.868 119.763 214.852 116.242C212.489 113.496 212.625 107.123 212.376 101.691C212.647 103.032 213.229 104.291 214.075 105.366C214.093 105.39 214.114 105.408 214.132 105.432L213.909 105.238C213.964 105.322 214.017 105.395 214.075 105.466ZM111.084 103.214C112.16 104.372 114.04 105.852 115.284 106.792C113.793 106.065 112.633 105.45 111.738 104.954C111.528 104.372 111.307 103.789 111.084 103.214ZM79.244 75.7422C78.9869 76.5129 78.5184 77.196 77.8921 77.7136L77.3671 75.4482C78.0549 75.5584 78.6954 75.6608 79.244 75.7422ZM184.164 137.986C184.372 137.54 184.587 137.101 184.805 136.673C185.725 136.374 186.537 135.81 187.138 135.051C187.596 136.639 187.935 138.259 188.152 139.897C188.152 139.973 188.152 140.015 188.152 140.015C188.14 140.676 188.041 141.332 187.855 141.966C187.614 142.732 187.173 143.454 186.372 143.541C186.038 143.575 184.398 143.178 181.943 142.509C181.232 142.315 180.45 142.097 179.615 141.861C180.925 141.774 182.747 141.036 184.164 137.986ZM204.706 82.5963C204.215 81.8088 203.191 81.3048 201.939 81.0081C201.71 80.8559 201.356 80.6144 200.904 80.2862C198.699 78.6718 194.297 75.036 192.278 70.3922C192.841 70.2353 193.391 70.0343 193.922 69.7911C194.746 69.413 195.525 68.9418 196.242 68.3866C196.484 68.1976 196.72 68.0007 196.946 67.796C197.524 67.2742 198.052 66.6985 198.521 66.0765C198.707 65.814 198.888 65.5647 199.046 65.289C199.303 64.8849 199.536 64.4659 199.744 64.0342C200.222 63.0264 200.591 61.9704 200.844 60.8841C200.946 60.4483 201.036 60.0047 201.107 59.5584C201.177 59.1122 201.246 58.6633 201.296 58.2117C201.459 56.6186 201.521 55.0167 201.482 53.4157C201.482 53.3396 201.482 53.2608 201.482 53.1847C201.482 53.1558 201.482 53.1269 201.482 53.1007C201.474 51.4777 201.298 49.8598 200.957 48.2731C201.075 48.3177 201.193 48.3624 201.306 48.4149C201.496 48.5079 201.677 48.6177 201.847 48.743C201.805 48.6826 201.758 48.6222 201.713 48.5619C202.474 49.0554 203.041 49.8245 203.551 50.5911C205.883 54.2281 207.373 58.3408 207.911 62.6282C208.449 66.9155 208.021 71.2689 206.659 75.3694C206.275 76.4956 205.816 77.6165 205.714 78.8004C205.343 83.0295 209.389 86.2557 210.893 90.2301C211.646 92.2226 211.764 94.4303 211.864 96.6144C210.73 91.0833 206.585 85.6388 204.713 82.6068L204.706 82.5963Z" fill="url(#paint0_linear_1320_17449)"/>
<path d="M104.361 166.221C104.361 166.221 104.164 169.503 102.917 170.553C102.917 170.553 100.358 185.385 97.9951 188.075L97.6013 189.585L87.7572 188.469L89.726 175.344L91.5636 163.268L104.361 166.221Z" fill="#FFC1C8"/>
<path opacity="0.03" d="M104.361 166.221C104.361 166.221 104.164 169.503 102.917 170.553C102.917 170.553 100.358 185.385 97.9951 188.075L97.6013 189.585L87.7572 188.469L89.726 175.344L91.5636 163.268L104.361 166.221Z" fill="white"/>
<path d="M93.7529 188.259L97.9951 188.073L97.7693 194.751L94.5221 196.927L88.6733 195.646L90.8076 186.721L93.7529 188.259Z" fill="#FF748F"/>
<path opacity="0.03" d="M93.7529 188.259L97.9951 188.073L97.7693 194.751L94.5221 196.927L88.6733 195.646L90.8076 186.721L93.7529 188.259Z" fill="white"/>
<path d="M94.5221 194.239C94.5221 194.239 97.8534 193.258 99.4337 194.539C101.014 195.82 104.857 199.235 105.626 199.663C106.395 200.091 117.486 202.183 113.824 204.871C110.162 207.559 100.759 206.793 100.759 206.793C100.759 206.793 94.6087 204.997 94.4381 204.913C94.2675 204.829 90.5004 202.992 90.3823 202.863C90.2642 202.734 91.4481 194.2 91.4481 194.2L94.5221 194.239Z" fill="#5D618C"/>
<path opacity="0.03" d="M94.5221 194.239C94.5221 194.239 97.8534 193.258 99.4337 194.539C101.014 195.82 104.857 199.235 105.626 199.663C106.395 200.091 117.486 202.183 113.824 204.871C110.162 207.559 100.759 206.793 100.759 206.793C100.759 206.793 94.6087 204.997 94.4381 204.913C94.2675 204.829 90.5004 202.992 90.3823 202.863C90.2642 202.734 91.4481 194.2 91.4481 194.2L94.5221 194.239Z" fill="white"/>
<path d="M84.8696 105.516L84.6727 117.717L84.2264 143.745L83.9639 143.974C76.1542 150.733 70.6415 143.58 70.6415 143.58C70.2268 144.071 69.329 144.304 68.3629 144.404C67.3063 144.499 66.2432 144.499 65.1866 144.404L64.924 144.38C64.924 144.38 44.3117 119.03 43.0648 114.567C42.8175 113.812 42.8239 112.997 43.0832 112.247C43.4901 111.181 44.464 110.545 45.3959 110.17C46.0795 109.9 46.7966 109.723 47.5275 109.645C47.5275 109.645 46.9368 104.986 44.2461 98.0946C42.7341 94.2226 42.8811 92.2564 43.2984 91.2693C43.624 90.5054 44.1149 90.3427 44.1149 90.3427C44.1149 90.3427 44.9444 89.731 46.2806 88.7676C47.391 87.9565 48.8532 86.8959 50.4807 85.7225L51.9902 84.641C57.558 80.6455 64.2678 75.9414 65.6407 75.4531C65.7264 75.4218 65.8141 75.3963 65.9032 75.377C68.72 74.6971 78.1729 76.1094 78.1729 76.1094L84.8696 105.516Z" fill="#6C63FF"/>
<path opacity="0.1" d="M84.8695 105.516L84.6727 117.717C75.3352 114.964 66.654 96.7165 65.5094 95.278C64.5302 94.0284 65.5357 80.1128 65.9058 75.3823C68.7225 74.7024 78.1755 76.1147 78.1755 76.1147L84.8695 105.516Z" fill="white"/>
<path d="M192.039 81.7537C192.039 81.7537 184.755 85.4944 183.836 100.195C183.836 100.195 182.655 107.677 181.998 108.989C181.342 110.302 178.192 122.705 178.586 124.215C178.586 124.215 177.929 125.724 175.501 125.068C173.073 124.412 159.947 122.377 156.994 120.408L148.856 116.536C148.856 116.536 132.975 105.314 129.628 114.961C126.281 124.608 145.312 124.22 145.312 124.22L154.303 128.42L181.539 137.406C181.539 137.406 185.148 139.047 187.577 133.796C189.13 130.489 190.975 127.326 193.089 124.346C193.089 124.346 198.602 108.858 198.536 106.233C198.471 103.608 204.443 97.373 204.443 97.373C204.443 97.373 205.624 80.8349 195.911 81.163L192.039 81.7537Z" fill="#FFC1C7"/>
<path opacity="0.03" d="M192.039 81.7537C192.039 81.7537 184.755 85.4944 183.836 100.195C183.836 100.195 182.655 107.677 181.998 108.989C181.342 110.302 178.192 122.705 178.586 124.215C178.586 124.215 177.929 125.724 175.501 125.068C173.073 124.412 159.947 122.377 156.994 120.408L148.856 116.536C148.856 116.536 132.975 105.314 129.628 114.961C126.281 124.608 145.312 124.22 145.312 124.22L154.303 128.42L181.539 137.406C181.539 137.406 185.148 139.047 187.577 133.796C189.13 130.489 190.975 127.326 193.089 124.346C193.089 124.346 198.602 108.858 198.536 106.233C198.471 103.608 204.443 97.373 204.443 97.373C204.443 97.373 205.624 80.8349 195.911 81.163L192.039 81.7537Z" fill="white"/>
<path d="M114.993 94.522C115.386 94.9814 117.224 95.929 117.224 95.929C117.224 95.929 123.262 103.114 125.69 104.952C128.118 106.789 136.059 113.811 134.453 116.47C132.846 119.13 131.04 118.536 131.04 118.536L116.83 108.692C116.83 108.692 111.843 105.117 110.827 103.411C109.811 101.704 108.561 98.1315 108.561 98.1315L114.993 94.522Z" fill="#FFC1C8"/>
<path opacity="0.03" d="M114.993 94.522C115.386 94.9814 117.224 95.929 117.224 95.929C117.224 95.929 123.262 103.114 125.69 104.952C128.118 106.789 136.059 113.811 134.453 116.47C132.846 119.13 131.04 118.536 131.04 118.536L116.83 108.692C116.83 108.692 111.843 105.117 110.827 103.411C109.811 101.704 108.561 98.1315 108.561 98.1315L114.993 94.522Z" fill="white"/>
<path d="M107.02 82.2495L117.224 95.9315L108.036 99.5096L104.23 88.0562L107.02 82.2495Z" fill="#DCE6F2"/>
<path opacity="0.03" d="M107.02 82.2495L117.224 95.9315L108.036 99.5096L104.23 88.0562L107.02 82.2495Z" fill="white"/>
<path d="M109.677 117.132L111.514 119.823L113.089 160.118C113.089 160.118 113.221 163.924 112.105 165.04C110.989 166.156 101.867 165.434 101.867 165.434C101.867 165.434 102.195 124.351 102.326 123.563C102.458 122.776 109.677 117.132 109.677 117.132Z" fill="#575988"/>
<path opacity="0.1" d="M109.677 117.132L111.514 119.823L113.089 160.118C113.089 160.118 113.221 163.924 112.105 165.04C110.989 166.156 101.867 165.434 101.867 165.434C101.867 165.434 102.195 124.351 102.326 123.563C102.458 122.776 109.677 117.132 109.677 117.132Z" fill="white"/>
<path d="M97.3887 168.07C96.7911 169.539 96.0893 170.964 95.2886 172.333C95.2886 172.333 93.5823 182.069 92.8552 182.967C92.3302 183.623 92.0886 188.522 92.002 191.076C91.9705 192 91.9574 192.617 91.9574 192.617L81.9243 197.4L81.8796 191.079C81.8796 191.079 81.8796 191.05 81.8796 190.995C81.8166 189.601 81.0921 173.456 82.612 172.517C83.5046 171.963 84.3551 169.629 84.93 167.715C85.3684 166.237 85.644 165.001 85.644 165.001C85.644 165.001 96.7902 164.276 97.7195 165.471C98.0607 165.896 97.8245 166.93 97.3887 168.07Z" fill="#FFC1C8"/>
<path opacity="0.1" d="M97.3887 168.07C92.8682 167.975 87.2033 167.783 84.9142 167.702C85.3526 166.224 85.6282 164.988 85.6282 164.988C85.6282 164.988 96.7744 164.263 97.7037 165.458C98.0607 165.896 97.8244 166.93 97.3887 168.07Z" fill="white"/>
<path d="M84.2133 108.338C84.2133 108.338 81.1288 124.745 81.7194 135.311C82.3101 145.877 81.2601 153.682 82.5726 156.771C83.8852 159.861 83.8852 166.878 83.8852 166.878C83.8852 166.878 101.736 167.534 103.573 167.272C105.411 167.009 105.345 165.631 105.345 165.631C105.345 165.631 104.098 154.732 105.28 151.319C106.461 147.906 106.264 137.472 106.264 137.472L111.252 120.671C111.252 120.671 112.761 113.124 109.611 110.039C106.461 106.955 84.2133 108.338 84.2133 108.338Z" fill="#575988"/>
<path d="M190.136 195.032L189.349 196.187L184.479 203.433L180.345 204.679L177.26 201.661L177.41 199.668L178.179 189.323C178.179 189.323 159.094 178.095 157.388 175.995C155.682 173.895 149.119 171.992 149.119 171.992C149.119 171.992 139.078 167.332 135.337 159.194C131.596 151.056 141.572 149.81 141.572 149.81L179.045 185.647L190.136 195.032Z" fill="#FFC1C7"/>
<path opacity="0.1" d="M189.362 196.184L184.492 203.43L180.358 204.677L177.273 201.658L177.423 199.665L180.817 202.577L187.183 195.161L189.362 196.184Z" fill="white"/>
<path d="M194.73 199.232L182.852 210.323C182.852 210.323 176.026 211.636 169.923 210.717C166.022 210.129 166.773 207.99 167.799 206.517L167.818 206.491C168.432 205.648 169.331 205.057 170.348 204.826C175.399 203.608 177.142 199.952 177.142 199.952L180.817 203.102L187.183 195.683L191.89 197.893L194.73 199.232Z" fill="#575988"/>
<path d="M194.73 199.358L182.852 210.455C182.852 210.455 176.026 211.767 169.923 210.848C166.022 210.26 166.51 208.121 167.537 206.648C168.717 207.584 170.134 208.174 171.629 208.352C174.976 208.68 180.03 208.352 180.03 208.352L191.89 198.027L194.73 199.358Z" fill="#000407"/>
<path d="M96.6616 66.423C95.6955 66.906 95.2519 68.3971 95.0734 70.0982C94.7715 73.0015 95.2598 76.4982 95.2598 76.4982C95.2598 76.4982 82.1343 72.9097 83.5361 72.2088C84.342 71.8071 84.7699 68.8827 84.9877 66.4755C85.1505 64.6957 85.1978 63.1968 85.1978 63.1968C85.1978 63.1968 99.2867 65.1105 96.6616 66.423Z" fill="#FFC1C8"/>
<path d="M201.141 82.3496C201.141 82.3496 185.214 97.3993 185.739 93.0259C185.813 92.4169 185.603 91.5742 185.188 90.5793C183.715 87.0302 179.644 81.5201 176.459 77.4906C174.123 74.5347 172.259 72.3742 172.259 72.3742C172.259 72.3742 192.039 55.7495 190.464 65.1998C190.136 67.3547 190.436 69.5585 191.328 71.5473C193.299 76.1885 197.668 79.84 199.849 81.4518C200.637 82.032 201.141 82.3496 201.141 82.3496Z" fill="#FFC1C7"/>
<path opacity="0.1" d="M188.278 68.0848C187.992 68.4392 186.931 69.6835 186.616 70.0117C183.623 73.1277 183.224 77.6245 178.565 77.6245C177.863 77.6249 177.161 77.5802 176.465 77.4906C174.128 74.5347 172.265 72.3743 172.265 72.3743C172.265 72.3743 192.039 55.7495 190.464 65.1998C190.092 67.4417 187.445 66.1212 188.278 68.0848Z" fill="white"/>
<path d="M195.014 60.6477C195.014 63.9018 194.05 67.0829 192.242 69.7887C190.435 72.4945 187.865 74.6036 184.859 75.8491C181.853 77.0946 178.545 77.4206 175.353 76.7859C172.162 76.1512 169.23 74.5843 166.929 72.2833C164.628 69.9824 163.061 67.0508 162.427 63.8593C161.792 60.6677 162.118 57.3597 163.363 54.3534C164.609 51.3472 166.718 48.7779 169.424 46.9703C172.13 45.1628 175.311 44.1983 178.565 44.1989C180.727 44.1905 182.87 44.6103 184.869 45.434C186.869 46.2577 188.685 47.469 190.214 48.998C191.744 50.5271 192.955 52.3437 193.778 54.3432C194.602 56.3426 195.022 58.4853 195.014 60.6477Z" fill="#FFC1C7"/>
<path opacity="0.1" d="M201.141 82.3494C201.141 82.3494 185.214 97.3992 185.739 93.0257C185.813 92.4167 185.603 91.5741 185.188 90.5791L187.49 85.1504C190.311 82.6796 193.928 81.3094 197.678 81.2915C198.36 81.2909 199.042 81.3374 199.718 81.4306L199.849 81.4516C200.637 82.0318 201.141 82.3494 201.141 82.3494Z" fill="white"/>
<path d="M219.866 192.604C219.866 192.604 208.578 210.628 208.578 212.029C208.578 212.029 195.801 207.042 191.252 205.992C186.703 204.942 182.413 195.405 182.413 195.405C182.413 195.405 170.338 184.027 165.613 182.452C161.604 181.116 142.341 153.944 136.603 145.746C135.9 144.742 135.535 143.542 135.559 142.317C135.584 141.093 135.997 139.908 136.739 138.933L136.847 138.794C138.365 136.884 140.376 135.424 142.663 134.572C144.95 133.72 147.427 133.508 149.825 133.959C150.357 134.057 150.883 134.186 151.4 134.347C159.664 136.902 173.976 141.291 181.195 143.273C183.61 143.937 185.225 144.323 185.553 144.299C186.34 144.218 186.773 143.512 187.012 142.737C187.195 142.107 187.293 141.456 187.304 140.8C187.304 140.8 187.304 140.758 187.304 140.682C187.082 139.013 186.735 137.363 186.264 135.747C185.422 132.859 183.962 129.47 181.539 127.85C179.528 126.509 177.93 123.55 177.092 120.111C175.966 115.468 176.226 109.942 178.738 106.324L181.166 100.596L185.227 91.0148L187.49 85.6753C190.311 83.2045 193.928 81.8343 197.678 81.8164C198.36 81.8158 199.042 81.8623 199.718 81.9555C201.458 82.1971 202.962 82.7195 203.59 83.7485C205.514 86.8986 209.89 92.6738 210.764 98.4491C211.638 104.224 210.591 113.675 213.565 117.177C216.54 120.678 218.29 129.076 221.441 130.827C224.591 132.578 216.366 136.251 216.366 136.251L216.398 136.804L216.54 139.227C216.54 139.227 216.597 139.293 216.702 139.424C218.535 141.692 235.091 163.468 219.866 192.604Z" fill="#FF6584"/>
<path d="M216.715 139.424C213.266 140.146 205.721 141.719 202.356 142.409L201.765 142.53C201.568 142.569 201.348 142.606 201.109 142.64C197.728 143.105 190.393 142.876 187.036 142.74C187.218 142.11 187.316 141.458 187.327 140.802C187.327 140.802 187.327 140.76 187.327 140.684C189.881 140.519 195.935 140.036 201.122 138.97C201.545 138.883 201.962 138.792 202.369 138.708C202.957 138.571 203.529 138.427 204.075 138.274C208.727 136.962 213.639 136.789 216.413 136.815L216.555 139.238C216.555 139.238 216.597 139.293 216.715 139.424Z" fill="#575988"/>
<path d="M202.343 138.697V142.409L201.752 142.53C201.555 142.569 201.335 142.606 201.096 142.64V138.981C201.519 138.884 201.936 138.792 202.343 138.697Z" fill="#FF6584"/>
<path opacity="0.1" d="M205.559 145.806C205.559 145.806 198.537 161.885 194.271 163.46C190.005 165.035 179.373 170.613 179.373 170.613C179.373 170.613 185.477 175.995 191.843 170.088C198.208 164.182 207.396 148.431 205.559 145.806Z" fill="white"/>
<path opacity="0.1" d="M213.237 143.646C213.237 143.646 213.893 149.749 212.975 150.865C212.056 151.98 213.237 143.646 213.237 143.646Z" fill="white"/>
<path opacity="0.1" d="M217.043 147.644C217.043 147.644 220.587 184.789 202.999 184.986C202.999 184.991 219.472 168.644 217.043 147.644Z" fill="white"/>
<path opacity="0.1" d="M221.506 156.569C221.506 156.569 226.56 176.06 219.931 178.292C219.931 178.297 223.409 168.19 221.506 156.569Z" fill="white"/>
<path opacity="0.1" d="M190.071 151.581C189.742 151.581 176.42 153.878 179.308 155.716C182.195 157.553 190.071 151.581 190.071 151.581Z" fill="white"/>
<path opacity="0.1" d="M199.258 125.27C199.258 125.27 210.153 134.917 208.053 135.967L199.258 125.27Z" fill="white"/>
<path opacity="0.1" d="M198.34 128.354C198.34 128.354 204.64 136.099 203.918 136.558L198.34 128.354Z" fill="white"/>
<path opacity="0.1" d="M211.793 127.168C211.793 127.168 214.681 130.778 214.222 131.565L211.793 127.168Z" fill="white"/>
<path opacity="0.1" d="M214.681 125.27C214.681 125.27 218.815 128.481 217.897 129.733L214.681 125.27Z" fill="white"/>
<path d="M191.711 86.1558C191.711 86.1558 205.165 87.2058 204.574 98.0343C203.984 108.863 193.943 111.619 193.943 111.619L180.883 107.878C180.883 107.878 186.724 86.8777 191.711 86.1558Z" fill="#FFC1C7"/>
<path opacity="0.1" d="M151.411 134.347C159.674 136.902 173.987 141.291 181.206 143.273C180.732 143.514 180.214 143.654 179.684 143.683C179.154 143.712 178.623 143.631 178.126 143.443L150.891 134.458L149.825 133.959C150.361 134.057 150.89 134.186 151.411 134.347Z" fill="white"/>
<path opacity="0.1" d="M197.5 107.582C196.221 109.288 195.095 111.126 195.137 112.276C195.158 113.103 194.612 115.211 193.882 117.707C192.002 123.977 189.45 130.025 186.269 135.747C185.427 132.859 183.967 129.47 181.544 127.85C179.533 126.509 177.935 123.55 177.097 120.112C177.735 117.623 178.342 115.531 178.591 115.032C179.247 113.719 180.429 106.238 180.429 106.238C180.54 104.342 180.788 102.457 181.171 100.597C182.124 96.0473 183.744 92.9838 185.232 91.015C187.028 88.6209 188.645 87.7966 188.645 87.7966L192.517 87.2059C196.98 87.0563 199.132 90.4506 200.169 94.1703C201.44 98.7931 200.377 103.739 197.5 107.582Z" fill="white"/>
<path d="M187.839 86.7415C187.839 86.7415 180.555 90.4822 179.636 105.183C179.636 105.183 178.455 112.664 177.798 113.977C177.142 115.289 173.992 127.693 174.386 129.202C174.386 129.202 173.729 130.712 171.301 130.056C168.873 129.399 155.747 127.365 152.794 125.396L144.656 121.524C144.656 121.524 128.774 110.302 125.427 119.949C122.08 129.596 141.112 129.208 141.112 129.208L150.103 133.408L177.339 142.394C177.339 142.394 180.948 144.034 183.377 138.784C183.983 137.472 184.631 136.225 185.264 135.091C188.54 129.255 191.164 123.077 193.089 116.668C193.832 114.171 194.365 112.063 194.344 111.236C194.315 110.086 195.444 108.246 196.707 106.543C199.594 102.699 200.645 97.7538 199.358 93.1283C198.321 89.4086 196.158 86.0143 191.706 86.1666L187.839 86.7415Z" fill="#FFC1C7"/>
<path opacity="0.1" d="M96.6615 66.4228C95.6955 66.9058 95.2518 68.3969 95.0733 70.0979C94.9027 70.0979 94.7321 70.0979 94.5614 70.0979C91.0321 70.1046 87.624 68.8112 84.9877 66.4648C85.1504 64.685 85.1977 63.186 85.1977 63.186C85.1977 63.186 99.2866 65.1102 96.6615 66.4228Z" fill="white"/>
<path d="M109 55.1348C109 57.9904 108.153 60.7819 106.566 63.1562C104.98 65.5305 102.725 67.3811 100.087 68.4739C97.4485 69.5667 94.5455 69.8526 91.7447 69.2955C88.944 68.7384 86.3714 67.3633 84.3522 65.3441C82.333 63.3249 80.9579 60.7523 80.4008 57.9516C79.8437 55.1509 80.1297 52.2478 81.2225 49.6096C82.3152 46.9714 84.1658 44.7165 86.5401 43.13C88.9144 41.5436 91.7059 40.6968 94.5615 40.6968C98.3881 40.7051 102.056 42.2289 104.762 44.9348C107.467 47.6406 108.991 51.3082 109 55.1348Z" fill="#FFC1C8"/>
<path opacity="0.1" d="M113.877 111.68C113.877 111.68 106.33 114.699 103.967 115.749C101.605 116.799 88.0853 114.37 88.0853 114.37C88.0853 114.37 81.0631 110.827 81.6538 107.283C82.2444 103.739 76.0098 92.128 76.0098 92.128C76.0098 92.128 75.8129 81.8245 78.5693 79.8556C81.3256 77.8868 80.2756 73.7523 80.2756 73.7523C80.2756 73.7523 80.2887 73.6158 80.3307 73.3926C80.5013 72.5159 81.1182 70.2845 83.1632 69.5521C83.5772 69.4408 84.0117 69.4291 84.4311 69.518C86.3921 69.8146 89.6131 71.2742 92.2775 72.6209C94.4826 73.7365 96.3071 74.7735 96.7245 75.015L96.8137 75.0648C96.8137 75.0648 97.7981 77.3618 98.9794 76.6399C100.161 75.918 106.067 79.265 107.183 80.7744C108.299 82.2839 107.511 89.3716 107.314 91.1436C107.117 92.9155 108.43 98.1657 109.874 101.179C111.317 104.193 113.877 111.68 113.877 111.68Z" fill="white"/>
<path d="M113.877 110.892C113.877 110.892 106.33 113.911 103.967 114.961C101.605 116.011 88.0853 113.583 88.0853 113.583C88.0853 113.583 81.0631 110.039 81.6538 106.495C82.2444 102.951 76.0098 91.3404 76.0098 91.3404C76.0098 91.3404 75.8129 81.0369 78.5693 79.0681C81.3256 77.0992 80.2756 72.9647 80.2756 72.9647C80.2756 72.9647 80.2887 72.8282 80.3307 72.6051C80.5013 71.7283 81.1182 69.4969 83.1632 68.7645C83.5772 68.6532 84.0117 68.6415 84.4311 68.7304C86.3921 69.027 89.6131 70.4866 92.2775 71.8333C94.4826 72.9489 96.3071 73.9859 96.7245 74.2274L96.8137 74.2772C96.8137 74.2772 97.7981 76.5742 98.9794 75.8523C100.161 75.1304 106.067 78.4774 107.183 79.9868C108.299 81.4963 107.511 88.5841 107.314 90.356C107.117 92.1279 108.43 97.3781 109.874 100.392C111.317 103.405 113.877 110.892 113.877 110.892Z" fill="#DCE6F2"/>
<path d="M89.4425 100.812C89.4425 100.812 82.9663 111.312 81.9163 111.882L82.31 115.557C82.31 115.557 91.5425 113.63 92.1122 111.05C92.6818 108.469 92.3747 100.681 92.3747 100.681L89.4425 100.812Z" fill="#575988"/>
<path opacity="0.2" d="M89.4425 100.812C89.4425 100.812 82.9663 111.312 81.9163 111.882L82.31 115.557C82.31 115.557 91.5425 113.63 92.1122 111.05C92.6818 108.469 92.3747 100.681 92.3747 100.681L89.4425 100.812Z" fill="white"/>
<path opacity="0.1" d="M98.5542 87.4341C98.5542 87.4341 99.7014 91.8653 101.507 93.3747C103.314 94.8841 98.5542 87.4341 98.5542 87.4341Z" fill="white"/>
<path d="M87.2977 99.1162C87.4631 99.4128 93.0073 106.96 98.8482 109.748C104.689 112.536 117.717 115.82 117.717 115.82C117.717 115.82 128.283 117.789 130.087 118.542C131.89 119.295 134.19 115.917 122.868 111.095C111.546 106.272 109.349 104.138 109.349 104.138C109.349 104.138 99.5045 99.3419 97.9294 96.9793C96.3543 94.6167 87.2977 99.1162 87.2977 99.1162Z" fill="#FFC1C8"/>
<path opacity="0.1" d="M91.4324 135.831C91.6293 135.699 96.3544 130.646 96.9451 132.812C97.5357 134.978 91.4324 135.831 91.4324 135.831Z" fill="white"/>
<path opacity="0.1" d="M94.1887 125.855C94.1231 126.052 93.4668 131.631 91.5636 132.287L94.1887 125.855Z" fill="white"/>
<path opacity="0.1" d="M96.1575 127.37C96.1575 127.37 94.4512 133.342 92.2855 133.731L96.1575 127.37Z" fill="white"/>
<path opacity="0.1" d="M87.4946 145.281C87.4946 145.281 90.3822 145.347 90.776 143.509L87.4946 145.281Z" fill="white"/>
<path opacity="0.1" d="M91.4324 157.23C91.8261 157.296 97.9951 161.234 96.4201 162.021C94.845 162.809 91.4324 157.23 91.4324 157.23Z" fill="white"/>
<path opacity="0.1" d="M91.9914 190.47V191.076C91.9599 192 91.9468 192.617 91.9468 192.617L81.9136 197.4L81.869 191.079C81.869 191.079 81.869 191.05 81.869 190.995V190.567L85.8854 190.695L91.9914 190.47Z" fill="white"/>
<path d="M93.8684 199.66L85.4996 202.863L81.743 200.642L81.7824 197.602L81.869 191.076L85.8855 191.205L91.9914 190.992V195.562L93.8684 199.66Z" fill="#FF748F"/>
<path opacity="0.1" d="M93.8606 199.663L85.4918 202.866L81.7352 200.645L81.7746 197.605C82.3196 198.319 83.0162 198.904 83.8141 199.317C84.6121 199.73 85.4916 199.961 86.3895 199.994C86.3895 199.994 89.3349 196.319 91.1278 195.253C91.2552 195.176 91.3967 195.127 91.5439 195.107C91.691 195.087 91.8406 195.097 91.9836 195.137V195.565L93.8606 199.663Z" fill="white"/>
<path d="M86.3974 200.516C86.3974 200.516 82.9848 200.56 81.2732 197.313C81.2732 197.313 78.8397 199.663 78.7951 204.616C78.7505 209.57 78.8397 209.74 78.8397 209.74C78.8397 209.74 88.6602 209.357 90.4978 210.04C92.3354 210.722 107.75 209.441 107.75 209.441C107.75 209.441 108.774 206.75 104.119 205.811C99.4651 204.871 95.622 199.917 95.4934 199.705C95.3647 199.492 92.9313 194.717 91.1383 195.767C89.3454 196.817 86.3974 200.516 86.3974 200.516Z" fill="#5D618C"/>
<path opacity="0.1" d="M95.4488 39.1848L94.4696 39.0509L95.0812 39.0352L95.4488 39.1848Z" fill="white"/>
<path opacity="0.1" d="M109 55.1352C109 56.2551 108.871 57.3712 108.614 58.4612C108.395 58.4046 108.185 58.3162 107.991 58.1987C107.711 58.0175 107.43 57.7682 107.099 57.797C106.905 57.8275 106.723 57.9111 106.574 58.0386C105.02 59.1752 103.865 61.0443 101.975 61.4066C102.164 60.8533 102.19 60.2571 102.048 59.6897C101.647 60.0928 101.156 60.3938 100.614 60.5674C100.073 60.741 99.498 60.7821 98.9375 60.6873C99.0741 60.3595 99.0899 59.9939 98.9821 59.6556C97.6512 60.401 96.2655 61.0443 94.8371 61.5798C94.7872 61.3173 94.74 61.0758 94.6901 60.8238C92.6793 61.8056 92.8368 65.1368 90.826 66.1186C89.6289 66.704 87.9383 66.284 87.1114 67.3393C87.0799 67.3813 87.0511 67.4233 87.0222 67.4679C84.8736 66.1536 83.1061 64.3 81.8954 62.0914C80.6848 59.8827 80.073 57.3957 80.1208 54.8774C80.1686 52.3591 80.8743 49.8971 82.168 47.736C83.4616 45.5748 85.2981 43.7897 87.4951 42.5579C89.6921 41.326 92.1731 40.6904 94.6917 40.714C97.2103 40.7376 99.679 41.4198 101.852 42.6926C104.026 43.9654 105.829 45.7847 107.081 47.9697C108.334 50.1548 108.994 52.6296 108.994 55.1483L109 55.1352Z" fill="white"/>
<path d="M95.4488 38.6573C94.236 38.1559 93.0048 37.6518 91.7001 37.5022C90.3954 37.3526 88.9884 37.6072 88.004 38.4761C87.2164 39.1692 86.5995 40.2822 85.5495 40.3137C85.0376 40.3321 84.5651 40.0748 84.1057 39.8517C82.7931 39.2217 81.1524 38.8646 79.9685 39.6994C79.0235 40.3688 78.6691 41.5974 78.5142 42.7445C78.3593 43.8917 78.3226 45.1071 77.7766 46.1178C77.4379 46.7478 76.9234 47.2623 76.4981 47.8372C75.4172 49.298 74.9092 51.1042 75.0701 52.9142C75.1797 53.8093 75.3713 54.6924 75.6424 55.5524L76.7134 59.3352C77.2568 61.2568 77.8107 63.2046 78.845 64.9135C79.8793 66.6225 81.4701 68.0925 83.4127 68.5336C84.5835 68.7961 86.001 68.5808 86.6573 67.5754C86.8253 67.3129 86.9329 67.032 87.1167 66.7879C87.9305 65.7378 89.6342 66.1552 90.8312 65.5698C92.842 64.588 92.6845 61.2568 94.6954 60.275L94.845 61.0284C96.2718 60.4921 97.6565 59.8498 98.9874 59.1068C99.0947 59.445 99.0798 59.8101 98.9454 60.1385C99.5055 60.232 100.08 60.1902 100.62 60.0167C101.161 59.8431 101.652 59.5429 102.054 59.1409C102.195 59.7083 102.169 60.3045 101.98 60.8578C103.87 60.4929 105.025 58.6238 106.579 57.4871C106.729 57.3615 106.911 57.279 107.104 57.2482C107.438 57.2194 107.716 57.4688 107.997 57.6473C108.483 57.9426 109.056 58.0643 109.62 57.9923C110.185 57.9203 110.708 57.6589 111.105 57.2509C111.932 56.3531 111.969 54.9723 111.703 53.7805C111.438 52.5887 110.916 51.452 110.803 50.2366C110.638 48.5801 111.215 46.8502 110.685 45.2751C110.236 43.939 109.06 42.9703 107.797 42.335C106.535 41.6997 105.172 41.3296 103.883 40.76C102.66 40.2113 101.521 39.4763 100.25 39.0431C98.4125 38.4157 96.4148 38.4656 94.4748 38.5181" fill="#794F6A"/>
<path d="M95.6981 87.5549C95.6981 87.5549 97.7982 73.4239 79.8162 74.1222L70.7596 75.3271C70.7596 75.3271 79.3989 76.8812 81.4779 77.1096L81.6984 77.1411C83.6226 77.4929 90.2747 77.0545 95.6981 87.5549Z" fill="#6C63FF"/>
<path opacity="0.1" d="M84.2133 143.908V143.746C91.5871 137.369 84.2133 143.908 84.2133 143.908Z" fill="white"/>
<path d="M68.3497 144.404C67.2931 144.499 66.23 144.499 65.1734 144.404L43.0831 112.252C43.49 111.186 44.4639 110.551 45.3958 110.176L68.3497 144.404Z" fill="#575988"/>
<path d="M54.0246 109.979L52.9746 111.225C52.9746 111.225 45.01 97.9949 43.2985 91.2747C43.624 90.5108 44.1149 90.348 44.1149 90.348C44.1149 90.348 44.9444 89.7364 46.2806 88.7729C46.7767 91.9336 48.4699 99.6619 54.0246 109.979Z" fill="#575988"/>
<path d="M59.8655 105.904L57.7654 107.086C52.0322 100.376 51.5439 89.1037 51.5964 84.6122L53.1085 83.5254C53.3132 89.424 59.8655 105.904 59.8655 105.904Z" fill="#575988"/>
<path opacity="0.1" d="M65.3782 104.729C65.3126 105.582 62.8843 114.245 66.4282 115.688C69.9721 117.132 65.3782 104.729 65.3782 104.729Z" fill="white"/>
<path opacity="0.1" d="M72.991 119.626C73.1222 120.085 74.3035 135.048 76.863 133.867C79.4225 132.686 78.0443 115.623 78.0443 115.623L72.991 119.626Z" fill="white"/>
<path opacity="0.1" d="M195.014 60.6476C195.019 64.8966 193.374 68.9815 190.425 72.0406C189.224 72.295 187.985 72.3164 186.776 72.1036C186.158 72.0253 185.57 71.7893 185.07 71.4184C184.588 70.9737 184.21 70.4277 183.965 69.8197C183.006 67.759 182.515 65.378 181.171 63.614C179.827 61.8499 177.1 61.0755 175.803 62.8842C175.097 63.866 174.979 65.3754 174.036 66.0553C172.905 66.8744 171.411 65.9109 170.532 64.7428C167.933 61.3301 168.823 54.6204 163.867 53.678L163.667 53.6438C165.257 50.255 167.954 47.5094 171.314 45.8604C174.674 44.2113 178.496 43.7574 182.149 44.5736C185.802 45.3898 189.068 47.4273 191.407 50.3497C193.745 53.272 195.018 56.9046 195.014 60.6476Z" fill="white"/>
<path d="M164.129 53.4339C163.326 53.279 162.394 53.3 161.856 52.607C161.538 52.1974 161.446 51.6304 161.37 51.0923C161.047 48.7664 160.872 46.27 161.798 44.162C163.318 40.7047 167.23 39.5497 170.629 39.807C174.029 40.0642 177.365 41.3321 180.765 41.1195C183.264 40.9568 185.729 39.9907 188.22 40.2664C190.191 40.4869 192.029 41.466 193.801 42.4662C195.46 43.4007 197.156 44.4061 198.332 46.0285C200.059 48.4042 200.385 51.6855 200.432 54.7648C200.49 58.3796 200.235 62.1335 198.718 65.3151C196.518 69.9326 191.612 72.6811 187.039 71.8542C186.421 71.7759 185.833 71.54 185.332 71.169C184.852 70.7235 184.475 70.1777 184.23 69.5704C183.269 67.507 182.778 65.1287 181.434 63.362C180.09 61.5953 177.362 60.8262 176.066 62.6348C175.36 63.614 175.241 65.1261 174.299 65.806C173.168 66.6224 171.674 65.659 170.794 64.4934C168.196 61.0782 169.086 54.3736 164.129 53.4339Z" fill="#945B79"/>
<path d="M204.078 45.8029C206.58 46.9973 208.315 49.3232 209.945 51.5624C211.302 53.4236 212.707 55.4134 212.885 57.7078C212.956 58.6475 212.817 59.6031 212.996 60.5271C213.623 63.7901 217.721 65.2523 218.918 68.3604C219.474 69.8252 219.298 71.4554 219.054 73.0042C218.703 75.2447 218.231 77.4644 217.639 79.6536C217.285 80.9662 216.883 82.3312 217.154 83.6648C217.361 84.6991 217.941 85.6073 218.403 86.5524C219.608 89.1014 219.816 91.9916 219.907 94.8083C219.999 97.6251 219.997 100.492 220.839 103.18C221.682 105.868 223.541 108.409 226.221 109.278C225.321 109.892 224.277 110.262 223.191 110.354C223.031 111.234 223.533 112.129 224.242 112.685C224.95 113.242 225.817 113.531 226.662 113.806C226.085 114.213 225.422 114.481 224.724 114.589C224.026 114.696 223.313 114.64 222.64 114.426C221.519 114.058 220.593 113.271 219.697 112.499L214.665 108.17C213.993 107.626 213.372 107.021 212.809 106.364C209.554 102.319 211.497 96.1891 209.68 91.3301C208.2 87.3793 204.22 84.1714 204.585 79.9686C204.685 78.7926 205.136 77.6795 205.514 76.556C206.855 72.4797 207.276 68.1571 206.747 63.8986C206.218 59.6402 204.753 55.5518 202.456 51.9273C201.881 51.0348 201.214 50.137 200.256 49.6776C198.799 48.9819 196.717 49.2812 195.89 47.8925C195.452 47.1601 195.365 45.8712 195.326 45.0495C197.998 44.4379 201.579 44.6085 204.078 45.8029Z" fill="#945B79"/>
<path opacity="0.1" d="M76.2381 90.2486C77.4667 82.1738 87.5602 79.2573 92.9181 85.4289C94.4669 87.2192 95.8398 89.1802 96.6168 91.1411C99.242 97.7695 99.4388 98.3602 99.4388 98.3602C99.4388 98.3602 83.2288 101.51 83.3601 103.873L76.0098 92.1255C76.0098 92.1255 76.0649 91.3905 76.2381 90.2486Z" fill="white"/>
<path d="M76.2381 89.461C77.4667 81.3862 87.5602 78.4697 92.9181 84.6413C94.4669 86.4316 95.8398 88.3926 96.6168 90.3535C99.242 96.9819 99.4388 97.5726 99.4388 97.5726C99.4388 97.5726 83.2288 100.723 83.3601 103.085L76.0098 91.3379C76.0098 91.3379 76.0649 90.6029 76.2381 89.461Z" fill="#DCE6F2"/>
<path opacity="0.1" d="M80.8007 79.0996C80.9975 79.4277 88.7416 88.8781 92.8105 90.2248C96.8794 91.5714 80.8007 79.0996 80.8007 79.0996Z" fill="white"/>
<path opacity="0.1" d="M47.5275 109.65C47.5275 109.65 68.0033 133.801 70.6284 143.58L47.5275 109.65Z" fill="white"/>
<path opacity="0.1" d="M48.3151 87.3369C48.3151 87.3369 52.7777 110.438 61.4406 120.151C70.1034 129.864 79.0288 146.402 79.0288 146.402" stroke="white" stroke-width="2" stroke-miterlimit="10"/>
<g opacity="0.1">
<path opacity="0.1" d="M111.583 53.728C111.6 54.4958 111.335 55.2433 110.837 55.8281C110.44 56.2361 109.917 56.4975 109.352 56.5695C108.788 56.6415 108.215 56.5199 107.729 56.2245C107.448 56.046 107.17 55.7966 106.836 55.8255C106.643 55.8562 106.462 55.9388 106.311 56.0644C104.833 57.1459 103.715 58.889 101.98 59.3694C102.041 59.8331 101.995 60.3048 101.844 60.7476C103.734 60.3827 104.889 58.5136 106.443 57.3769C106.593 57.2513 106.774 57.1688 106.968 57.138C107.301 57.1092 107.579 57.3585 107.86 57.537C108.347 57.8324 108.919 57.9541 109.484 57.8821C110.048 57.81 110.572 57.5487 110.968 57.1407C111.78 56.2481 111.829 54.9041 111.583 53.728Z" fill="white"/>
<path opacity="0.1" d="M110.535 48.8035C110.556 49.0187 110.593 49.2314 110.635 49.444C110.635 48.1314 110.947 46.7664 110.635 45.5063C110.64 46.5774 110.425 47.7114 110.535 48.8035Z" fill="white"/>
<path opacity="0.1" d="M101.791 57.708C101.39 58.11 100.899 58.4102 100.358 58.5838C99.8172 58.7573 99.2429 58.7991 98.6828 58.7056C98.8172 58.3772 98.8321 58.0121 98.7248 57.6739C97.3939 58.4169 96.0092 59.0592 94.5824 59.5955L94.4328 58.8421C92.422 59.8239 92.5795 63.1551 90.5686 64.1369C89.3716 64.7223 87.681 64.2997 86.8541 65.355C86.6704 65.5938 86.5627 65.88 86.3947 66.1425C85.7385 67.1479 84.3209 67.3658 83.1501 67.1007C81.2023 66.6596 79.6141 65.1896 78.5824 63.4806C77.5508 61.7717 76.9942 59.8239 76.4508 57.9023L75.3798 54.1195C75.2039 53.4895 75.0254 52.8595 74.9099 52.2163C74.9099 52.4106 74.9099 52.6022 74.9388 52.7938C75.0484 53.6889 75.24 54.572 75.5111 55.4321L76.5821 59.2148C77.1255 61.1364 77.6794 63.0842 78.7137 64.7932C79.748 66.5021 81.3388 67.9722 83.2814 68.4132C84.4522 68.6757 85.8697 68.4605 86.526 67.455C86.694 67.1925 86.8016 66.9116 86.9854 66.6675C87.7992 65.6175 89.5029 66.0349 90.6999 65.4495C92.7107 64.4677 92.5532 61.1364 94.5641 60.1546L94.7137 60.908C96.1378 60.3714 97.5198 59.7291 98.8482 58.9865C98.9555 59.3246 98.9406 59.6898 98.8062 60.0181C99.3388 60.1063 99.8845 60.0722 100.402 59.9185C100.92 59.7648 101.395 59.4954 101.794 59.1308C101.906 58.6631 101.905 58.1754 101.791 57.708Z" fill="white"/>
</g>
<path opacity="0.1" d="M96.7246 75.015C95.3123 75.8287 92.0309 77.6401 91.3667 77.3303C90.658 77.0022 82.9244 74.2957 80.3413 73.3927C80.5119 72.5159 81.1288 70.2845 83.1738 69.5521C83.5878 69.4408 84.0223 69.4291 84.4417 69.518L92.2855 72.6209C94.4827 73.7365 96.3072 74.7735 96.7246 75.015Z" fill="white"/>
<path d="M96.7246 74.2274C95.3123 75.0411 92.0309 76.8525 91.3667 76.5427C90.658 76.2146 82.9244 73.5081 80.3413 72.6051C80.5119 71.7283 81.1288 69.4969 83.1738 68.7645C83.5878 68.6532 84.0223 68.6415 84.4417 68.7304L92.2855 71.8333C94.4827 72.9489 96.3072 73.9859 96.7246 74.2274Z" fill="#DCE6F2"/>
<path opacity="0.1" d="M200.44 54.4525C200.364 57.411 199.962 60.3694 198.731 62.9552C196.531 67.5727 191.625 70.3212 187.052 69.4943C186.434 69.416 185.846 69.1801 185.345 68.8092C184.865 68.3637 184.489 67.8178 184.243 67.2105C183.282 65.1471 182.791 62.7688 181.447 61.0021C180.103 59.2354 177.376 58.4662 176.079 60.2749C175.373 61.2541 175.254 62.7662 174.312 63.4461C173.181 64.2625 171.687 63.2991 170.808 62.1335C168.209 58.7209 169.099 52.0085 164.142 51.0687C163.339 50.9138 162.407 50.9348 161.869 50.2418C161.551 49.8323 161.46 49.2653 161.383 48.7271C161.294 48.0945 161.218 47.4487 161.173 46.8003C161.082 48.2334 161.153 49.6723 161.383 51.0897C161.46 51.6279 161.551 52.1949 161.869 52.6044C162.407 53.2974 163.339 53.2764 164.142 53.4313C169.099 54.3711 168.209 61.0756 170.808 64.4961C171.684 65.6485 173.17 66.6119 174.312 65.8087C175.254 65.1288 175.362 63.6167 176.079 62.6375C177.376 60.8288 180.103 61.6006 181.447 63.3647C182.791 65.1288 183.285 67.5097 184.243 69.5731C184.489 70.1804 184.865 70.7262 185.345 71.1717C185.846 71.5427 186.434 71.7786 187.052 71.8569C191.625 72.6838 196.531 69.9353 198.731 65.3178C200.248 62.1361 200.503 58.3822 200.445 54.7675C200.44 54.652 200.44 54.547 200.44 54.4525Z" fill="white"/>
<g opacity="0.1">
<path opacity="0.1" d="M217.605 67.053C218.162 68.5178 217.986 70.148 217.742 71.6968C217.391 73.9355 216.918 76.1535 216.327 78.341C215.972 79.6535 215.571 81.0186 215.841 82.3521C216.048 83.3864 216.629 84.2947 217.091 85.2397C218.296 87.7887 218.503 90.679 218.595 93.4957C218.687 96.3124 218.684 99.179 219.527 101.867C220.073 103.699 221.116 105.344 222.54 106.619C221.788 105.61 221.213 104.481 220.839 103.279C219.997 100.591 219.997 97.7247 219.907 94.908C219.818 92.0913 219.608 89.201 218.403 86.6547C217.952 85.7018 217.353 84.7935 217.154 83.7671C216.891 82.4335 217.285 81.0658 217.639 79.7533C218.232 77.5598 218.704 75.3356 219.054 73.0908C219.298 71.542 219.474 69.9091 218.918 68.4443C218.469 67.2709 217.605 66.3443 216.668 65.4438C217.061 65.9294 217.377 66.4721 217.605 67.053Z" fill="white"/>
<path opacity="0.1" d="M226.221 109.383C225.519 109.151 224.86 108.807 224.268 108.364C223.525 108.751 222.713 108.986 221.879 109.057C221.719 109.937 222.22 110.832 222.929 111.388C223.07 111.502 223.219 111.604 223.375 111.696C223.193 111.311 223.131 110.88 223.199 110.459C224.282 110.364 225.322 109.993 226.221 109.383Z" fill="white"/>
<path opacity="0.1" d="M198.936 48.3859C197.935 47.9081 196.641 47.8976 195.659 47.4907C195.715 47.6731 195.79 47.8491 195.883 48.0157C196.709 49.4018 198.791 49.1025 200.248 49.8008C200.432 49.8931 200.608 50.0012 200.773 50.1237C200.318 49.398 199.685 48.8 198.936 48.3859Z" fill="white"/>
<path opacity="0.1" d="M224.494 112.992C223.488 113.421 222.361 113.474 221.32 113.142C220.199 112.774 219.272 111.987 218.377 111.215L213.345 106.886C213.106 106.682 212.87 106.474 212.639 106.264C212.691 106.335 212.744 106.409 212.801 106.479C213.363 107.137 213.984 107.742 214.657 108.285L219.69 112.617C220.585 113.386 221.511 114.176 222.632 114.544C223.305 114.758 224.018 114.813 224.716 114.705C225.414 114.597 226.077 114.329 226.654 113.922C225.894 113.713 225.167 113.401 224.494 112.992Z" fill="white"/>
<path opacity="0.1" d="M208.633 50.2525C209.99 52.1137 211.394 54.1035 211.573 56.3978C211.644 57.3376 211.505 58.2931 211.683 59.2172C211.967 60.6951 212.967 61.8055 214.085 62.8634C213.545 62.2151 213.171 61.4447 212.996 60.619C212.817 59.6923 212.956 58.7368 212.885 57.797C212.707 55.5027 211.31 53.5128 209.945 51.6543C208.958 50.2971 207.929 48.911 206.719 47.7612C207.394 48.5593 208.021 49.4098 208.633 50.2525Z" fill="white"/>
</g>
<path opacity="0.1" d="M197.116 44.8105C197.116 44.8105 195.541 47.4357 200.004 49.6224L200.266 48.9215L197.116 44.8105Z" fill="white"/>
<path d="M196.854 44.8105C196.854 44.8105 195.279 47.4357 199.741 49.6224L200.004 48.9215L196.854 44.8105Z" fill="#FF6584"/>
<path d="M258.993 193.389C258.993 193.389 260.436 195.276 258.329 198.114C256.221 200.952 254.483 203.364 255.178 205.141C255.178 205.141 258.36 199.852 260.954 199.778C263.547 199.705 261.841 196.57 258.993 193.389Z" fill="#6C63FF"/>
<path opacity="0.1" d="M258.993 193.389C259.119 193.571 259.218 193.77 259.289 193.979C261.815 196.948 263.159 199.718 260.73 199.786C258.47 199.852 255.758 203.894 255.107 204.916C255.128 204.994 255.155 205.07 255.184 205.149C255.184 205.149 258.365 199.86 260.959 199.786C263.552 199.713 261.841 196.57 258.993 193.389Z" fill="white"/>
<path d="M261.675 195.793C261.675 196.457 261.599 196.996 261.507 196.996C261.416 196.996 261.342 196.471 261.342 195.793C261.342 195.116 261.434 195.441 261.526 195.441C261.618 195.441 261.675 195.129 261.675 195.793Z" fill="#FFD037"/>
<path d="M262.594 196.586C262.011 196.904 261.502 197.095 261.46 197.014C261.418 196.932 261.851 196.61 262.434 196.292C263.017 195.974 262.788 196.205 262.833 196.292C262.878 196.378 263.18 196.268 262.594 196.586Z" fill="#FFD037"/>
<path d="M251.367 193.389C251.367 193.389 249.923 195.276 252.031 198.114C254.139 200.952 255.877 203.364 255.181 205.141C255.181 205.141 252.002 199.852 249.406 199.778C246.81 199.705 248.529 196.57 251.367 193.389Z" fill="#6C63FF"/>
<path opacity="0.1" d="M251.367 193.389C251.241 193.571 251.141 193.77 251.07 193.979C248.545 196.948 247.201 199.718 249.629 199.786C251.889 199.852 254.601 203.894 255.252 204.916C255.23 204.995 255.204 205.073 255.173 205.149C255.173 205.149 251.994 199.86 249.398 199.786C246.802 199.713 248.529 196.57 251.367 193.389Z" fill="white"/>
<path d="M248.694 195.793C248.694 196.457 248.77 196.996 248.862 196.996C248.954 196.996 249.028 196.471 249.028 195.793C249.028 195.116 248.936 195.441 248.844 195.441C248.752 195.441 248.694 195.129 248.694 195.793Z" fill="#FFD037"/>
<path d="M247.776 196.586C248.358 196.904 248.865 197.095 248.91 197.014C248.954 196.932 248.518 196.61 247.936 196.292C247.353 195.974 247.581 196.205 247.537 196.292C247.492 196.378 247.193 196.268 247.776 196.586Z" fill="#FFD037"/>
<path d="M249.154 204.903C249.154 204.903 253.186 204.777 254.404 203.913C255.622 203.049 260.607 202.012 260.909 203.388C261.211 204.763 266.968 210.289 262.416 210.326C257.864 210.363 251.839 209.617 250.626 208.88C249.414 208.142 249.154 204.903 249.154 204.903Z" fill="#A8A8A8"/>
<path opacity="0.2" d="M262.494 209.859C257.943 209.895 251.918 209.15 250.705 208.412C249.781 207.848 249.414 205.829 249.29 204.9H249.154C249.154 204.9 249.416 208.152 250.624 208.893C251.831 209.633 257.861 210.376 262.413 210.339C263.726 210.339 264.18 209.861 264.156 209.168C263.967 209.596 263.471 209.859 262.494 209.859Z" fill="white"/>
<path d="M68.9457 200.274C69.4277 199.883 69.7792 199.353 69.9537 198.757C70.0824 198.153 69.8251 197.429 69.2502 197.208C68.6044 196.962 67.914 197.41 67.3916 197.862C66.8692 198.314 66.2681 198.831 65.5829 198.734C65.9353 198.414 66.1989 198.01 66.3479 197.558C66.497 197.107 66.5265 196.624 66.4335 196.158C66.4036 195.965 66.3219 195.784 66.1972 195.633C65.8402 195.25 65.1892 195.415 64.7587 195.717C63.3936 196.675 63.013 198.531 63.0077 200.198C62.8686 199.597 62.9841 198.97 62.9815 198.361C62.9788 197.752 62.8082 197.048 62.2884 196.728C61.9674 196.55 61.6053 196.46 61.2384 196.465C60.6241 196.442 59.9416 196.505 59.5216 196.954C58.9966 197.51 59.1357 198.447 59.5898 199.054C60.044 199.66 60.7317 200.054 61.3644 200.477C61.8735 200.779 62.3078 201.193 62.6349 201.687C62.6732 201.756 62.7048 201.829 62.7294 201.905H66.5595C67.4249 201.472 68.2276 200.923 68.9457 200.274Z" fill="#6C63FF"/>
<path d="M38.3816 204.414C38.3816 204.414 34.7065 191.892 39.072 182.673C40.9333 178.819 41.4951 174.465 40.6733 170.264C40.2655 168.273 39.6768 166.323 38.9145 164.439" stroke="#535461" stroke-width="2" stroke-miterlimit="10"/>
<path d="M41.642 158.614C41.642 160.147 38.862 164.599 38.862 164.599C38.862 164.599 36.082 160.137 36.082 158.614C36.082 157.877 36.3749 157.17 36.8963 156.648C37.4176 156.127 38.1247 155.834 38.862 155.834C39.5993 155.834 40.3064 156.127 40.8278 156.648C41.3491 157.17 41.642 157.877 41.642 158.614Z" fill="#6C63FF"/>
<path d="M46.2359 167.114C45.4011 168.403 40.6497 170.629 40.6497 170.629C40.6497 170.629 40.7337 165.379 41.5684 164.095C41.9764 163.494 42.6037 163.076 43.3159 162.931C44.0281 162.786 44.7687 162.926 45.379 163.321C45.9892 163.716 46.4206 164.334 46.5808 165.043C46.741 165.752 46.6172 166.495 46.2359 167.114Z" fill="#6C63FF"/>
<path d="M46.0338 181.644C44.6635 182.334 39.4369 181.856 39.4369 181.856C39.4369 181.856 42.1618 177.373 43.5321 176.68C43.8589 176.507 44.2169 176.4 44.5852 176.368C44.9536 176.335 45.3248 176.375 45.6771 176.488C46.0295 176.6 46.3559 176.781 46.6372 177.021C46.9186 177.261 47.1492 177.555 47.3157 177.885C47.4821 178.216 47.581 178.576 47.6065 178.945C47.632 179.314 47.5836 179.684 47.4643 180.034C47.3449 180.384 47.1569 180.707 46.9113 180.983C46.6656 181.259 46.3673 181.484 46.0338 181.644Z" fill="#6C63FF"/>
<path d="M43.4061 192.601C42.1723 193.515 36.9404 193.914 36.9404 193.914C36.9404 193.914 38.8673 189.034 40.0906 188.12C40.3818 187.881 40.7185 187.704 41.0802 187.6C41.442 187.495 41.8212 187.465 42.195 187.511C42.5687 187.558 42.9291 187.679 43.2543 187.869C43.5795 188.059 43.8628 188.313 44.0869 188.616C44.3111 188.918 44.4714 189.263 44.5581 189.63C44.6449 189.996 44.6563 190.377 44.5916 190.748C44.5269 191.118 44.3876 191.472 44.182 191.788C43.9764 192.103 43.7088 192.374 43.3956 192.583L43.4061 192.601Z" fill="#6C63FF"/>
<path d="M34.8141 170.926C35.914 171.997 41.0435 173.105 41.0435 173.105C41.0435 173.105 39.786 168.009 38.6809 166.938C38.4214 166.673 38.1114 166.462 37.7692 166.319C37.427 166.175 37.0596 166.102 36.6885 166.103C36.3175 166.103 35.9503 166.178 35.6087 166.323C35.2671 166.468 34.9579 166.68 34.6994 166.946C34.4409 167.212 34.2383 167.527 34.1036 167.873C33.9688 168.219 33.9047 168.588 33.9149 168.959C33.9251 169.33 34.0094 169.695 34.163 170.033C34.3165 170.371 34.5361 170.674 34.8088 170.926H34.8141Z" fill="#6C63FF"/>
<path d="M31.9081 183.781C33.2784 184.471 38.505 183.996 38.505 183.996C38.505 183.996 35.7828 179.51 34.4098 178.82C34.0841 178.655 33.7291 178.557 33.3653 178.53C33.0015 178.503 32.6359 178.547 32.2893 178.662C31.9428 178.776 31.6222 178.957 31.3458 179.195C31.0693 179.433 30.8425 179.724 30.6783 180.049C30.514 180.375 30.4155 180.73 30.3884 181.094C30.3613 181.458 30.4061 181.823 30.5204 182.17C30.6346 182.516 30.8159 182.837 31.054 183.113C31.2921 183.39 31.5823 183.617 31.9081 183.781Z" fill="#6C63FF"/>
<path d="M30.7899 196.665C32.0237 197.576 37.2555 197.977 37.2555 197.977C37.2555 197.977 35.3287 193.095 34.1054 192.181C33.5117 191.785 32.7885 191.633 32.0854 191.755C31.3824 191.878 30.7534 192.266 30.3287 192.839C29.9039 193.413 29.716 194.128 29.8038 194.836C29.8917 195.544 30.2485 196.191 30.8004 196.644L30.7899 196.665Z" fill="#6C63FF"/>
<path d="M41.642 158.614C41.642 160.147 38.862 164.599 38.862 164.599C38.862 164.599 36.082 160.137 36.082 158.614C36.082 157.877 36.3749 157.17 36.8963 156.648C37.4176 156.127 38.1247 155.834 38.862 155.834C39.5993 155.834 40.3064 156.127 40.8278 156.648C41.3491 157.17 41.642 157.877 41.642 158.614Z" fill="#6C63FF"/>
<path d="M46.2359 167.114C45.4011 168.403 40.6497 170.629 40.6497 170.629C40.6497 170.629 40.7337 165.379 41.5684 164.095C41.9764 163.494 42.6037 163.076 43.3159 162.931C44.0281 162.786 44.7687 162.926 45.379 163.321C45.9892 163.716 46.4206 164.334 46.5808 165.043C46.741 165.752 46.6172 166.495 46.2359 167.114Z" fill="#6C63FF"/>
<path d="M46.0338 181.644C44.6635 182.334 39.4369 181.856 39.4369 181.856C39.4369 181.856 42.1618 177.373 43.5321 176.68C43.8589 176.507 44.2169 176.4 44.5852 176.368C44.9536 176.335 45.3248 176.375 45.6771 176.488C46.0295 176.6 46.3559 176.781 46.6372 177.021C46.9186 177.261 47.1492 177.555 47.3157 177.885C47.4821 178.216 47.581 178.576 47.6065 178.945C47.632 179.314 47.5836 179.684 47.4643 180.034C47.3449 180.384 47.1569 180.707 46.9113 180.983C46.6656 181.259 46.3673 181.484 46.0338 181.644Z" fill="#6C63FF"/>
<path d="M43.4061 192.601C42.1723 193.515 36.9404 193.914 36.9404 193.914C36.9404 193.914 38.8673 189.034 40.0906 188.12C40.3818 187.881 40.7185 187.704 41.0802 187.6C41.442 187.495 41.8212 187.465 42.195 187.511C42.5687 187.558 42.9291 187.679 43.2543 187.869C43.5795 188.059 43.8628 188.313 44.0869 188.616C44.3111 188.918 44.4714 189.263 44.5581 189.63C44.6449 189.996 44.6563 190.377 44.5916 190.748C44.5269 191.118 44.3876 191.472 44.182 191.788C43.9764 192.103 43.7088 192.374 43.3956 192.583L43.4061 192.601Z" fill="#6C63FF"/>
<path d="M34.8141 170.926C35.914 171.997 41.0435 173.105 41.0435 173.105C41.0435 173.105 39.786 168.009 38.6809 166.938C38.4214 166.673 38.1114 166.462 37.7692 166.319C37.427 166.175 37.0596 166.102 36.6885 166.103C36.3175 166.103 35.9503 166.178 35.6087 166.323C35.2671 166.468 34.9579 166.68 34.6994 166.946C34.4409 167.212 34.2383 167.527 34.1036 167.873C33.9688 168.219 33.9047 168.588 33.9149 168.959C33.9251 169.33 34.0094 169.695 34.163 170.033C34.3165 170.371 34.5361 170.674 34.8088 170.926H34.8141Z" fill="#6C63FF"/>
<path d="M31.9081 183.781C33.2784 184.471 38.505 183.996 38.505 183.996C38.505 183.996 35.7828 179.51 34.4098 178.82C34.0841 178.655 33.7291 178.557 33.3653 178.53C33.0015 178.503 32.6359 178.547 32.2893 178.662C31.9428 178.776 31.6222 178.957 31.3458 179.195C31.0693 179.433 30.8425 179.724 30.6783 180.049C30.514 180.375 30.4155 180.73 30.3884 181.094C30.3613 181.458 30.4061 181.823 30.5204 182.17C30.6346 182.516 30.8159 182.837 31.054 183.113C31.2921 183.39 31.5823 183.617 31.9081 183.781Z" fill="#6C63FF"/>
<path d="M30.7899 196.665C32.0237 197.576 37.2555 197.977 37.2555 197.977C37.2555 197.977 35.3287 193.095 34.1054 192.181C33.5117 191.785 32.7885 191.633 32.0854 191.755C31.3824 191.878 30.7534 192.266 30.3287 192.839C29.9039 193.413 29.716 194.128 29.8038 194.836C29.8917 195.544 30.2485 196.191 30.8004 196.644L30.7899 196.665Z" fill="#6C63FF"/>
<path d="M29.6637 203.627C29.6637 203.627 34.1552 202.734 35.3523 201.545C36.5493 200.356 41.9413 198.274 42.5398 199.76C43.1384 201.246 50.6251 206.302 45.5351 207.194C40.445 208.087 33.5567 208.383 32.0578 207.787C30.5589 207.192 29.6637 203.627 29.6637 203.627Z" fill="#A8A8A8"/>
<path opacity="0.2" d="M45.5351 206.64C40.4424 207.533 33.5567 207.83 32.0578 207.236C30.9185 206.782 30.1257 204.611 29.8133 203.595L29.6637 203.627C29.6637 203.627 30.5615 207.194 32.0578 207.787C33.5541 208.381 40.4424 208.087 45.5351 207.194C47.0025 206.932 47.4225 206.331 47.265 205.567C47.1338 206.065 46.6271 206.446 45.5351 206.64Z" fill="white"/>
</g>
<defs>
<linearGradient id="paint0_linear_1320_17449" x1="134.77" y1="211.678" x2="134.77" y2="36.0375" gradientUnits="userSpaceOnUse">
<stop stop-color="#808080" stop-opacity="0.25"/>
<stop offset="0.54" stop-color="#808080" stop-opacity="0.12"/>
<stop offset="1" stop-color="#808080" stop-opacity="0.1"/>
</linearGradient>
<clipPath id="clip0_1320_17449">
<rect width="288" height="215.482" fill="white"/>
</clipPath>
</defs>
</svg>
